<svg width="144" height="48" viewBox="0 0 144 48" fill="none" xmlns="http://www.w3.org/2000/svg">
<path d="M132.532 0H11.4685C11.0353 0 10.602 0 10.1568 0C9.78372 0 9.4227 0 9.04964 0.012C8.24336 0.012 7.43707 0.096 6.64282 0.228C5.84857 0.36 5.07839 0.612 4.35634 0.984C3.6343 1.356 2.98446 1.824 2.40682 2.4C1.82918 2.964 1.34782 3.624 0.986796 4.344C0.625773 5.064 0.373057 5.832 0.240682 6.624C0.0962728 7.416 0.0240682 8.22 0.0240682 9.024C0.0240682 9.396 0.0120341 9.756 0 10.128V37.86C0 38.232 0 38.592 0.0240682 38.964C0.0240682 39.768 0.108307 40.572 0.240682 41.364C0.373057 42.156 0.625773 42.936 0.99883 43.644C1.35985 44.364 1.84122 45.012 2.41885 45.576C2.98446 46.152 3.64633 46.62 4.36838 46.992C5.09042 47.352 5.86061 47.616 6.65486 47.748C7.44911 47.88 8.25539 47.952 9.06168 47.964C9.43473 47.964 9.79575 47.976 10.1688 47.976C10.6141 47.976 11.0473 47.976 11.4805 47.976H132.544C132.977 47.976 133.41 47.976 133.843 47.976C134.204 47.976 134.589 47.976 134.95 47.964C135.757 47.964 136.563 47.88 137.357 47.748C138.151 47.616 138.934 47.352 139.656 46.992C140.378 46.632 141.028 46.152 141.605 45.576C142.183 45.012 142.652 44.352 143.025 43.644C143.386 42.924 143.639 42.156 143.771 41.364C143.904 40.572 143.976 39.768 144 38.964C144 38.592 144 38.232 144 37.86C144 37.428 144 36.996 144 36.552V11.448C144 11.004 144 10.572 144 10.14C144 9.768 144 9.408 144 9.036C143.988 8.232 143.916 7.428 143.771 6.636C143.639 5.844 143.386 5.076 143.025 4.356C142.279 2.916 141.1 1.74 139.656 0.996C138.934 0.636 138.163 0.384 137.357 0.24C136.563 0.108 135.757 0.036 134.95 0.024C134.589 0.024 134.204 0.012 133.843 0.012C133.41 0.012 132.977 0.012 132.544 0.012L132.532 0Z" fill="#A6A6A6"/>
<path d="M10.1567 46.9559C9.79566 46.9559 9.43464 46.9559 9.07362 46.9439C8.31547 46.9439 7.56936 46.8719 6.82324 46.7519C6.12526 46.6319 5.46339 46.4159 4.82558 46.0919C4.19981 45.7799 3.63421 45.3599 3.14081 44.8679C2.64741 44.3759 2.22622 43.8119 1.91333 43.1879C1.60044 42.5639 1.3718 41.8919 1.26349 41.1959C1.14315 40.4519 1.07094 39.6959 1.05891 38.9399C1.05891 38.6879 1.04688 37.8479 1.04688 37.8479V10.1279C1.04688 10.1279 1.04687 9.29987 1.05891 9.05987C1.05891 8.30387 1.13111 7.55987 1.26349 6.81587C1.38383 6.11987 1.60044 5.44787 1.91333 4.82387C2.22622 4.19987 2.63538 3.63587 3.14081 3.14387C3.63421 2.65187 4.19981 2.23187 4.82558 1.91987C5.45135 1.60787 6.12526 1.37987 6.81121 1.27187C7.55732 1.15187 8.31547 1.07987 9.07362 1.07987H10.1567L133.831 1.06787H134.926C135.672 1.09187 136.418 1.15187 137.165 1.28387C137.863 1.40387 138.536 1.61987 139.174 1.94387C140.426 2.57987 141.437 3.59987 142.086 4.84787C142.399 5.47187 142.616 6.14387 142.736 6.82787C142.857 7.57187 142.929 8.32787 142.941 9.09587C142.941 9.43187 142.941 9.80387 142.941 10.1639C142.941 10.6199 142.941 11.0399 142.941 11.4719V36.5879C142.941 37.0199 142.941 37.4519 142.941 37.8839C142.941 38.2799 142.941 38.6279 142.941 38.9999C142.929 39.7439 142.857 40.4879 142.736 41.2199C142.628 41.9159 142.399 42.5879 142.086 43.2239C141.774 43.8359 141.352 44.3999 140.859 44.8919C140.366 45.3839 139.8 45.8039 139.174 46.1159C138.536 46.4399 137.863 46.6559 137.165 46.7759C136.418 46.8959 135.672 46.9679 134.914 46.9679C134.565 46.9679 134.192 46.9799 133.831 46.9799H132.531H10.1567V46.9559Z" fill="black"/>
<path d="M29.8077 24.36C29.8318 22.32 30.9028 20.448 32.6477 19.38C31.5406 17.808 29.7596 16.848 27.8461 16.788C25.8244 16.572 23.8629 17.988 22.84 17.988C21.8171 17.988 20.2045 16.8 18.4956 16.836C16.2453 16.908 14.2115 18.156 13.1164 20.112C10.7938 24.132 12.5267 30.036 14.753 33.288C15.8722 34.884 17.1719 36.66 18.8807 36.588C20.5535 36.516 21.1793 35.532 23.1889 35.532C25.1986 35.532 25.7642 36.588 27.5092 36.552C29.3023 36.528 30.4335 34.956 31.5045 33.348C32.3108 32.22 32.9245 30.96 33.3337 29.64C31.2037 28.74 29.8197 26.664 29.8197 24.36H29.8077Z" fill="white"/>
<path d="M26.5222 14.6519C27.497 13.4879 27.9783 11.9759 27.858 10.4639C26.3658 10.6199 24.9819 11.3279 23.9951 12.4559C23.0203 13.5599 22.5269 15.0119 22.6232 16.4879C24.1395 16.4999 25.5715 15.8279 26.5222 14.6519Z" fill="white"/>
<path d="M50.9044 32.5678H45.2123L43.8404 36.5998H41.4336L46.8249 21.6958H49.328L54.7192 36.5998H52.2643L50.8924 32.5678H50.9044ZM45.802 30.7078H50.3148L48.0884 24.1678H48.0283L45.802 30.7078Z" fill="white"/>
<path d="M66.3803 31.1639C66.3803 34.5359 64.5632 36.7079 61.8314 36.7079C60.4234 36.7799 59.0877 36.0479 58.4017 34.8119H58.3536V40.1879H56.1152V25.7279H58.2814V27.5399H58.3175C59.0275 26.3159 60.3633 25.5719 61.7833 25.6199C64.5511 25.6199 66.3683 27.8039 66.3683 31.1639H66.3803ZM64.0818 31.1639C64.0818 28.9679 62.9386 27.5159 61.2057 27.5159C59.4727 27.5159 58.3415 28.9919 58.3415 31.1639C58.3415 33.3359 59.4968 34.8239 61.2057 34.8239C62.9145 34.8239 64.0818 33.3839 64.0818 31.1639Z" fill="white"/>
<path d="M78.3667 31.1639C78.3667 34.5359 76.5495 36.7079 73.8178 36.7079C72.4098 36.7799 71.074 36.0479 70.388 34.8119H70.3399V40.1879H68.1016V25.7279H70.2677V27.5399H70.3038C71.0138 26.3159 72.3496 25.5719 73.7696 25.6199C76.5375 25.6199 78.3546 27.8039 78.3546 31.1639H78.3667ZM76.0681 31.1639C76.0681 28.9679 74.9249 27.5159 73.192 27.5159C71.4591 27.5159 70.3279 28.9919 70.3279 31.1639C70.3279 33.3359 71.4831 34.8239 73.192 34.8239C74.9008 34.8239 76.0681 33.3839 76.0681 31.1639Z" fill="white"/>
<path d="M86.2962 32.4478C86.4647 33.9238 87.8968 34.8958 89.8704 34.8958C91.844 34.8958 93.1075 33.9238 93.1075 32.5918C93.1075 31.4398 92.2892 30.7438 90.3517 30.2638L88.4142 29.7958C85.6705 29.1358 84.3949 27.8518 84.3949 25.7758C84.3949 23.2078 86.6452 21.4438 89.8343 21.4438C93.0233 21.4438 95.1533 23.2078 95.2255 25.7758H92.9631C92.8308 24.2878 91.5913 23.3878 89.7982 23.3878C88.0051 23.3878 86.7656 24.2998 86.7656 25.6198C86.7656 26.6758 87.5478 27.2878 89.4732 27.7678L91.1219 28.1758C94.1906 28.8958 95.4662 30.1318 95.4662 32.3038C95.4662 35.0878 93.2399 36.8398 89.7019 36.8398C86.3925 36.8398 84.1542 35.1358 84.0098 32.4358H86.2962V32.4478Z" fill="white"/>
<path d="M100.304 23.1597V25.7277H102.374V27.4917H100.304V33.4797C100.304 34.4157 100.713 34.8477 101.627 34.8477C101.868 34.8477 102.121 34.8237 102.362 34.7997V36.5517C101.952 36.6237 101.531 36.6597 101.122 36.6597C98.9198 36.6597 98.0533 35.8317 98.0533 33.7317V27.5037H96.4648V25.7397H98.0533V23.1717H100.304V23.1597Z" fill="white"/>
<path d="M103.578 31.1637C103.578 27.7437 105.6 25.5957 108.741 25.5957C111.882 25.5957 113.903 27.7437 113.903 31.1637C113.903 34.5837 111.906 36.7317 108.741 36.7317C105.576 36.7317 103.578 34.5957 103.578 31.1637ZM111.629 31.1637C111.629 28.8237 110.546 27.4317 108.741 27.4317C106.936 27.4317 105.853 28.8237 105.853 31.1637C105.853 33.5037 106.924 34.8957 108.741 34.8957C110.558 34.8957 111.629 33.5277 111.629 31.1637Z" fill="white"/>
<path d="M115.756 25.7281H117.886V27.5761H117.934C118.235 26.3881 119.33 25.5721 120.557 25.6081C120.81 25.6081 121.075 25.6321 121.328 25.6921V27.7801C121.003 27.6841 120.666 27.6361 120.329 27.6481C119.089 27.6001 118.03 28.5601 117.982 29.8081C117.982 29.9281 117.982 30.0361 117.994 30.1561V36.6001H115.756V25.7401V25.7281Z" fill="white"/>
<path d="M131.629 33.4077C131.328 35.3757 129.402 36.7317 126.935 36.7317C123.77 36.7317 121.797 34.6197 121.797 31.2117C121.797 27.8037 123.77 25.5957 126.839 25.5957C129.908 25.5957 131.749 27.6597 131.749 30.9597V31.7277H124.059V31.8597C123.927 33.4197 125.07 34.7877 126.635 34.9317C126.755 34.9317 126.875 34.9437 126.984 34.9317C128.067 35.0277 129.09 34.4157 129.499 33.4077H131.617H131.629ZM124.071 30.1557H129.523C129.607 28.7157 128.5 27.4797 127.056 27.4077C126.984 27.4077 126.923 27.4077 126.851 27.4077C125.323 27.4077 124.083 28.6197 124.071 30.1437C124.071 30.1437 124.071 30.1557 124.071 30.1677V30.1557Z" fill="white"/>
<path d="M45.5252 10.4759C47.2701 10.3559 48.7984 11.6639 48.9188 13.4039C48.9308 13.6079 48.9188 13.8239 48.9067 14.0279C48.9067 16.3199 47.6672 17.6279 45.5252 17.6279H42.9258V10.4639H45.5252V10.4759ZM44.045 16.6199H45.3928C46.6323 16.6919 47.7033 15.7439 47.7755 14.5079C47.7755 14.3519 47.7755 14.1959 47.7515 14.0399C47.9199 12.8039 47.0535 11.6639 45.814 11.4959C45.6696 11.4719 45.5251 11.4719 45.3807 11.4839H44.0329V16.6199H44.045Z" fill="white"/>
<path d="M50.1579 14.928C50.0255 13.524 51.0604 12.276 52.4684 12.132C53.8764 12 55.128 13.032 55.2724 14.436C55.2844 14.604 55.2844 14.76 55.2724 14.928C55.4048 16.332 54.3819 17.592 52.9618 17.724C51.5538 17.856 50.2903 16.836 50.1579 15.42C50.1459 15.252 50.1459 15.084 50.1579 14.928ZM54.1652 14.928C54.1652 13.752 53.6357 13.068 52.7091 13.068C51.7825 13.068 51.253 13.752 51.253 14.928C51.253 16.104 51.7705 16.788 52.7091 16.788C53.6357 16.788 54.1652 16.104 54.1652 14.928Z" fill="white"/>
<path d="M62.06 17.6397H60.9529L59.8337 13.6557H59.7495L58.6303 17.6397H57.5352L56.043 12.2397H57.126L58.1008 16.3677H58.185L59.3042 12.2397H60.3271L61.4463 16.3677H61.5305L62.4932 12.2397H63.5643L62.0721 17.6397H62.06Z" fill="white"/>
<path d="M64.8047 12.2281H65.8396V13.0921H65.9239C66.2006 12.4561 66.8505 12.0721 67.5364 12.1321C68.5112 12.0601 69.3536 12.7801 69.4258 13.7521C69.4258 13.8841 69.4258 14.0161 69.4137 14.1361V17.6281H68.3427V14.4001C68.3427 13.5361 67.9697 13.1041 67.1754 13.1041C66.4895 13.0681 65.9118 13.5961 65.8757 14.2801C65.8757 14.3401 65.8757 14.4121 65.8757 14.4721V17.6281H64.8047V12.2281Z" fill="white"/>
<path d="M71.1094 10.1279H72.1804V17.6399H71.1094V10.1279Z" fill="white"/>
<path d="M73.6735 14.928C73.5411 13.524 74.5761 12.276 75.9841 12.132C77.3921 12 78.6436 13.032 78.788 14.436C78.8 14.604 78.8 14.76 78.788 14.928C78.9204 16.332 77.8975 17.592 76.4775 17.724C75.0574 17.856 73.8059 16.836 73.6735 15.42C73.6615 15.252 73.6615 15.084 73.6735 14.928ZM77.6809 14.928C77.6809 13.752 77.1514 13.068 76.2247 13.068C75.2981 13.068 74.7686 13.752 74.7686 14.928C74.7686 16.104 75.2861 16.788 76.2247 16.788C77.1514 16.788 77.6809 16.104 77.6809 14.928Z" fill="white"/>
<path d="M79.9062 16.1038C79.9062 15.1318 80.6283 14.5678 81.9159 14.4958L83.3841 14.4118V13.9438C83.3841 13.3678 83.011 13.0558 82.277 13.0558C81.6753 13.0558 81.2661 13.2718 81.1458 13.6558H80.1108C80.2191 12.7318 81.0976 12.1318 82.3251 12.1318C83.685 12.1318 84.4551 12.8038 84.4551 13.9438V17.6398H83.4202V16.8838H83.336C82.987 17.4358 82.3612 17.7598 81.7114 17.7358C80.8088 17.8318 80.0025 17.1718 79.9183 16.2838C79.9183 16.2358 79.9183 16.1758 79.9183 16.1158L79.9062 16.1038ZM83.3961 15.6478V15.1918L82.0724 15.2758C81.3263 15.3238 80.9893 15.5758 80.9893 16.0558C80.9893 16.5358 81.4105 16.8238 81.9881 16.8238C82.6861 16.8958 83.3119 16.3798 83.3841 15.6838C83.3841 15.6718 83.3841 15.6598 83.3841 15.6358L83.3961 15.6478Z" fill="white"/>
<path d="M85.8633 14.9279C85.8633 13.2239 86.7418 12.1439 88.1137 12.1439C88.7996 12.1079 89.4494 12.4799 89.7744 13.0919H89.8586V10.1279H90.9296V17.6399H89.9067V16.7879H89.8225C89.4735 17.3879 88.8237 17.7599 88.1257 17.7359C86.7418 17.7359 85.8753 16.6559 85.8753 14.9399L85.8633 14.9279ZM86.9704 14.9279C86.9704 16.0799 87.512 16.7639 88.4145 16.7639C89.3171 16.7639 89.8706 16.0679 89.8706 14.9279C89.8706 13.7879 89.305 13.0919 88.4145 13.0919C87.524 13.0919 86.9704 13.7879 86.9704 14.9279Z" fill="white"/>
<path d="M95.3454 14.9279C95.213 13.5239 96.2479 12.2759 97.6559 12.1319C99.0639 11.9879 100.315 13.0319 100.46 14.4359C100.472 14.6039 100.472 14.7599 100.46 14.9279C100.592 16.3319 99.5694 17.5919 98.1493 17.7239C96.7413 17.8559 95.4778 16.8359 95.3454 15.4199C95.3334 15.2519 95.3334 15.0839 95.3454 14.9279ZM99.3527 14.9279C99.3527 13.7519 98.8232 13.0679 97.8966 13.0679C96.97 13.0679 96.4405 13.7519 96.4405 14.9279C96.4405 16.1039 96.958 16.7879 97.8966 16.7879C98.8232 16.7879 99.3527 16.1039 99.3527 14.9279Z" fill="white"/>
<path d="M101.893 12.2281H102.928V13.0921H103.012C103.289 12.4561 103.938 12.0721 104.624 12.1321C105.599 12.0601 106.441 12.7801 106.514 13.7521C106.514 13.8841 106.514 14.0161 106.502 14.1361V17.6281H105.431V14.4001C105.431 13.5361 105.058 13.1041 104.263 13.1041C103.577 13.0681 103 13.5961 102.964 14.2801C102.964 14.3401 102.964 14.4121 102.964 14.4721V17.6281H101.893V12.2281Z" fill="white"/>
<path d="M112.542 10.8838V12.2518H113.722V13.1518H112.542V15.9358C112.542 16.4998 112.771 16.7518 113.313 16.7518C113.445 16.7518 113.589 16.7518 113.722 16.7278V17.6158C113.529 17.6518 113.337 17.6638 113.144 17.6758C111.953 17.6758 111.483 17.2558 111.483 16.2118V13.1638H110.629V12.2638H111.483V10.8958H112.554L112.542 10.8838Z" fill="white"/>
<path d="M115.166 10.1279H116.225V13.1039H116.309C116.598 12.4679 117.26 12.0839 117.958 12.1319C118.945 12.0839 119.787 12.8279 119.835 13.8119C119.835 13.9199 119.835 14.0399 119.823 14.1479V17.6399H118.752V14.4119C118.752 13.5479 118.355 13.1159 117.597 13.1159C116.899 13.0559 116.285 13.5719 116.237 14.2679C116.237 14.3399 116.237 14.4119 116.237 14.4839V17.6399H115.166V10.1279Z" fill="white"/>
<path d="M126.069 16.1758C125.768 17.1958 124.781 17.8558 123.722 17.7358C122.363 17.7718 121.231 16.7038 121.195 15.3478C121.195 15.2158 121.195 15.0838 121.219 14.9518C121.039 13.5838 122.002 12.3358 123.361 12.1558C123.482 12.1438 123.602 12.1318 123.71 12.1318C125.215 12.1318 126.129 13.1638 126.129 14.8558V15.2278H122.302V15.2878C122.23 16.0798 122.82 16.7638 123.614 16.8358C123.662 16.8358 123.71 16.8358 123.747 16.8358C124.264 16.8958 124.781 16.6438 125.034 16.1758H126.069ZM122.314 14.4358H125.046C125.094 13.7158 124.565 13.0918 123.843 13.0438C123.795 13.0438 123.759 13.0438 123.71 13.0438C122.94 13.0438 122.314 13.6438 122.302 14.4118C122.302 14.4118 122.302 14.4358 122.302 14.4478L122.314 14.4358Z" fill="white"/>
</svg>
