<svg width="162" height="48" viewBox="0 0 162 48" fill="none" xmlns="http://www.w3.org/2000/svg">
<g clip-path="url(#clip0_4756_22689)">
<path d="M156 0H6C2.68629 0 0 2.68629 0 6V42C0 45.3137 2.68629 48 6 48H156C159.314 48 162 45.3137 162 42V6C162 2.68629 159.314 0 156 0Z" fill="black"/>
<path d="M156 0.96C158.784 0.96 161.04 3.216 161.04 6V42C161.04 44.784 158.784 47.04 156 47.04H6C3.216 47.04 0.96 44.784 0.96 42V6C0.96 3.216 3.216 0.96 6 0.96H156ZM156 0H6C2.7 0 0 2.7 0 6V42C0 45.3 2.7 48 6 48H156C159.3 48 162 45.3 162 42V6C162 2.7 159.3 0 156 0Z" fill="#A6A6A6"/>
<path d="M55.1751 15.3C54.7791 15.444 54.0111 15.672 53.0991 15.672C52.0791 15.672 51.2271 15.408 50.5671 14.772C49.9791 14.208 49.6191 13.308 49.6191 12.252C49.6191 10.236 51.0111 8.74805 53.2911 8.74805C54.0711 8.74805 54.6831 8.91605 54.9831 9.06005L54.7671 9.76805C54.4071 9.61205 53.9511 9.48005 53.2671 9.48005C51.6231 9.48005 50.5431 10.5 50.5431 12.204C50.5431 13.908 51.5751 14.94 53.1591 14.94C53.7351 14.94 54.1191 14.856 54.3231 14.76V12.744H52.9431V12.036H55.1751V15.288V15.3Z" fill="white" stroke="white" stroke-width="0.2" stroke-miterlimit="10"/>
<path d="M60.2149 12.4198H57.5749V14.8678H60.5149V15.5998H56.7109V8.81982H60.3709V9.55182H57.5869V11.6878H60.2269V12.4078L60.2149 12.4198Z" fill="white" stroke="white" stroke-width="0.2" stroke-miterlimit="10"/>
<path d="M63.312 9.56382H61.248V8.81982H66.264V9.56382H64.188V15.5998H63.3V9.56382H63.312Z" fill="white" stroke="white" stroke-width="0.2" stroke-miterlimit="10"/>
<path d="M70.4268 8.81982V15.5998H69.5508V8.81982H70.4268Z" fill="white" stroke="white" stroke-width="0.2" stroke-miterlimit="10"/>
<path d="M73.439 9.56382H71.375V8.81982H76.391V9.56382H74.315V15.5998H73.427V9.56382H73.439Z" fill="white" stroke="white" stroke-width="0.2" stroke-miterlimit="10"/>
<path d="M85.4752 12.1439C85.4752 14.4719 84.0592 15.7079 82.3312 15.7079C80.6032 15.7079 79.2832 14.3159 79.2832 12.2759C79.2832 10.1279 80.6152 8.71191 82.4272 8.71191C84.2392 8.71191 85.4752 10.1279 85.4752 12.1439ZM80.2192 12.2519C80.2192 13.7039 80.9992 14.9999 82.3792 14.9999C83.7592 14.9999 84.5512 13.7279 84.5512 12.1799C84.5512 10.8359 83.8432 9.41991 82.3912 9.41991C80.9392 9.41991 80.2192 10.7519 80.2192 12.2399V12.2519Z" fill="white" stroke="white" stroke-width="0.2" stroke-miterlimit="10"/>
<path d="M86.8184 15.5998V8.81982H87.7784L89.9504 12.2518C90.4544 13.0438 90.8504 13.7638 91.1624 14.4478H91.1864C91.1024 13.5358 91.0904 12.7078 91.0904 11.6518V8.81982H91.9184V15.5998H91.0304L88.8824 12.1558C88.4144 11.3998 87.9584 10.6318 87.6104 9.89982H87.5744C87.6224 10.7638 87.6464 11.5798 87.6464 12.7078V15.5998H86.8184Z" fill="white" stroke="white" stroke-width="0.2" stroke-miterlimit="10"/>
<path d="M81.7678 26.1002C78.9478 26.1002 76.6438 28.2482 76.6438 31.2002C76.6438 34.1522 78.9478 36.3002 81.7678 36.3002C84.5878 36.3002 86.8918 34.1402 86.8918 31.2002C86.8918 28.2602 84.5878 26.1002 81.7678 26.1002ZM81.7678 34.2962C80.2198 34.2962 78.8878 33.0242 78.8878 31.2002C78.8878 29.3762 80.2198 28.1042 81.7678 28.1042C83.3158 28.1042 84.6478 29.3642 84.6478 31.2002C84.6478 33.0362 83.3158 34.2962 81.7678 34.2962ZM70.5958 26.1002C67.7758 26.1002 65.4718 28.2482 65.4718 31.2002C65.4718 34.1522 67.7758 36.3002 70.5958 36.3002C73.4158 36.3002 75.7198 34.1402 75.7198 31.2002C75.7198 28.2602 73.4158 26.1002 70.5958 26.1002ZM70.5958 34.2962C69.0478 34.2962 67.7158 33.0242 67.7158 31.2002C67.7158 29.3762 69.0478 28.1042 70.5958 28.1042C72.1438 28.1042 73.4758 29.3642 73.4758 31.2002C73.4758 33.0362 72.1438 34.2962 70.5958 34.2962ZM57.2998 27.6602V29.8202H62.4838C62.3278 31.0322 61.9198 31.9322 61.3078 32.5442C60.5518 33.3002 59.3758 34.1282 57.3118 34.1282C54.1198 34.1282 51.6238 31.5602 51.6238 28.3682C51.6238 25.1762 54.1198 22.6082 57.3118 22.6082C59.0278 22.6082 60.2878 23.2802 61.2118 24.1562L62.7358 22.6322C61.4398 21.3962 59.7238 20.4482 57.2998 20.4482C52.9318 20.4482 49.2598 24.0002 49.2598 28.3802C49.2598 32.7602 52.9318 36.3122 57.2998 36.3122C59.6638 36.3122 61.4398 35.5442 62.8318 34.0922C64.2598 32.6642 64.7038 30.6482 64.7038 29.0282C64.7038 28.5242 64.6678 28.0562 64.5838 27.6722H57.2998V27.6602ZM111.672 29.3402C111.252 28.2002 109.956 26.0882 107.304 26.0882C104.652 26.0882 102.492 28.1522 102.492 31.1882C102.492 34.0442 104.652 36.2882 107.556 36.2882C109.896 36.2882 111.252 34.8602 111.804 34.0322L110.064 32.8682C109.488 33.7202 108.696 34.2842 107.556 34.2842C106.416 34.2842 105.6 33.7682 105.084 32.7362L111.912 29.9162L111.684 29.3402H111.672ZM104.712 31.0442C104.652 29.0762 106.236 28.0682 107.376 28.0682C108.264 28.0682 109.02 28.5122 109.272 29.1482L104.712 31.0442ZM99.1678 35.9882H101.412V20.9882H99.1678V35.9882ZM95.4958 27.2282H95.4238C94.9198 26.6282 93.9598 26.0882 92.7358 26.0882C90.1798 26.0882 87.8398 28.3322 87.8398 31.2122C87.8398 34.0922 90.1798 36.3002 92.7358 36.3002C93.9478 36.3002 94.9198 35.7602 95.4238 35.1362H95.4958V35.8682C95.4958 37.8242 94.4518 38.8682 92.7718 38.8682C91.4038 38.8682 90.5518 37.8842 90.2038 37.0562L88.2478 37.8722C88.8118 39.2282 90.2998 40.8842 92.7718 40.8842C95.3998 40.8842 97.6198 39.3362 97.6198 35.5682V26.4002H95.4958V27.2282ZM92.9278 34.2842C91.3798 34.2842 90.0838 32.9882 90.0838 31.2122C90.0838 29.4362 91.3798 28.1042 92.9278 28.1042C94.4758 28.1042 95.6518 29.4242 95.6518 31.2122C95.6518 33.0002 94.4518 34.2842 92.9278 34.2842ZM122.184 20.9882H116.82V35.9882H119.064V30.3002H122.196C124.68 30.3002 127.116 28.5002 127.116 25.6442C127.116 22.7882 124.68 20.9882 122.196 20.9882H122.184ZM122.244 28.2242H119.064V23.0762H122.244C123.924 23.0762 124.872 24.4682 124.872 25.6442C124.872 26.8202 123.924 28.2122 122.244 28.2122V28.2242ZM136.08 26.0642C134.46 26.0642 132.78 26.7842 132.084 28.3562L134.076 29.1842C134.496 28.3562 135.288 28.0802 136.116 28.0802C137.268 28.0802 138.456 28.7762 138.468 30.0122V30.1682C138.06 29.9402 137.196 29.5922 136.128 29.5922C133.98 29.5922 131.808 30.7682 131.808 32.9642C131.808 34.9682 133.56 36.2642 135.528 36.2642C137.028 36.2642 137.868 35.5922 138.384 34.8002H138.456V35.9522H140.616V30.2042C140.616 27.5402 138.624 26.0522 136.056 26.0522L136.08 26.0642ZM135.804 34.2842C135.072 34.2842 134.052 33.9122 134.052 33.0122C134.052 31.8602 135.324 31.4162 136.428 31.4162C137.412 31.4162 137.88 31.6322 138.468 31.9202C138.3 33.3122 137.1 34.2962 135.804 34.2962V34.2842ZM148.5 26.3882L145.932 32.8922H145.86L143.196 26.3882H140.784L144.78 35.4842L142.5 40.5362H144.84L150.996 26.3882H148.512H148.5ZM128.328 35.9882H130.572V20.9882H128.328V35.9882Z" fill="white"/>
<path d="M24.864 23.304L12.084 36.864C12.48 38.34 13.824 39.42 15.42 39.42C16.056 39.42 16.656 39.252 17.172 38.94L17.208 38.916L31.584 30.624L24.852 23.292L24.864 23.304Z" fill="#EA4335"/>
<path d="M37.7882 20.9997H37.7762L31.5722 17.3877L24.5762 23.6157L31.5962 30.6357L37.7762 27.0717C38.8562 26.4837 39.5882 25.3437 39.5882 24.0357C39.5882 22.7277 38.8682 21.5877 37.7882 21.0117V20.9997Z" fill="#FBBC04"/>
<path d="M12.0848 11.1357C12.0128 11.4237 11.9648 11.7117 11.9648 12.0237V35.9877C11.9648 36.2997 12.0008 36.5877 12.0848 36.8757L25.2968 23.6637L12.0848 11.1357Z" fill="#4285F4"/>
<path d="M24.96 23.9999L31.572 17.3879L17.208 9.05987C16.692 8.74787 16.08 8.56787 15.42 8.56787C13.824 8.56787 12.48 9.65987 12.084 11.1239L24.96 23.9879V23.9999Z" fill="#34A853"/>
</g>
<defs>
<clipPath id="clip0_4756_22689">
<rect width="162" height="48" fill="white"/>
</clipPath>
</defs>
</svg>
