<svg width="38" height="32" viewBox="0 0 38 32" fill="none" xmlns="http://www.w3.org/2000/svg">
<g clip-path="url(#clip0_9242_63758)">
<path d="M36.9007 28.8005C36.7907 28.5405 36.6407 28.3105 36.4407 28.1105C36.2407 27.9105 36.0207 27.7605 35.7507 27.6505C35.4907 27.5405 35.2007 27.4805 34.8907 27.4805C34.5807 27.4805 34.3007 27.5405 34.0407 27.6505C33.7807 27.7605 33.5507 27.9105 33.3507 28.1105C33.1607 28.3105 33.0007 28.5405 32.8907 28.8005C32.7807 29.0605 32.7207 29.3505 32.7207 29.6505C32.7207 29.9505 32.7707 30.2405 32.8907 30.5005C33.0107 30.7605 33.1507 30.9905 33.3507 31.1805C33.5407 31.3705 33.7707 31.5305 34.0407 31.6405C34.3107 31.7505 34.5907 31.8105 34.8907 31.8105C35.1907 31.8105 35.4807 31.7605 35.7507 31.6405C36.0107 31.5305 36.2407 31.3805 36.4407 31.1805C36.6307 30.9905 36.7907 30.7605 36.9007 30.5005C37.0107 30.2405 37.0707 29.9505 37.0707 29.6505C37.0707 29.3505 37.0107 29.0605 36.9007 28.8005ZM36.5907 30.3805C36.5007 30.6005 36.3707 30.8005 36.2107 30.9705C36.0507 31.1405 35.8507 31.2705 35.6307 31.3705C35.4107 31.4705 35.1707 31.5205 34.9107 31.5205C34.6507 31.5205 34.4007 31.4705 34.1807 31.3705C33.9607 31.2705 33.7607 31.1405 33.6007 30.9705C33.4407 30.8005 33.3107 30.6105 33.2207 30.3805C33.1307 30.1505 33.0807 29.9105 33.0807 29.6505C33.0807 29.3905 33.1307 29.1505 33.2207 28.9205C33.3107 28.7005 33.4407 28.5005 33.6007 28.3305C33.7607 28.1605 33.9607 28.0305 34.1807 27.9305C34.4007 27.8305 34.6507 27.7805 34.9107 27.7805C35.1707 27.7805 35.4107 27.8305 35.6307 27.9305C35.8507 28.0305 36.0507 28.1605 36.2107 28.3305C36.3707 28.5005 36.5007 28.6905 36.5907 28.9205C36.6807 29.1505 36.7307 29.3905 36.7307 29.6505C36.7307 29.9105 36.6807 30.1505 36.5907 30.3805Z" fill="#0A66C2"/>
<path d="M35.5109 29.7204C35.5909 29.6904 35.6509 29.6404 35.7109 29.5904C35.7709 29.5304 35.8109 29.4704 35.8509 29.3804C35.8809 29.3004 35.9009 29.2004 35.9009 29.0904C35.9009 28.8704 35.8409 28.6904 35.7109 28.5804C35.5809 28.4704 35.3709 28.4004 35.0909 28.4004H34.1309V30.9004H34.4409V29.7904H34.9609L35.6609 30.9004H36.0209L35.2709 29.7904C35.3609 29.7704 35.4409 29.7504 35.5109 29.7204ZM34.8409 29.5304H34.4309V28.6604H34.9909C35.0709 28.6604 35.1409 28.6604 35.2109 28.6804C35.2809 28.6904 35.3409 28.7104 35.4009 28.7504C35.4609 28.7804 35.5009 28.8304 35.5309 28.8804C35.5609 28.9304 35.5809 29.0104 35.5809 29.0904C35.5809 29.1904 35.5609 29.2804 35.5209 29.3404C35.4809 29.4004 35.4209 29.4404 35.3509 29.4704C35.2809 29.5004 35.2009 29.5104 35.1109 29.5204C35.0209 29.5204 34.9309 29.5204 34.8309 29.5204L34.8409 29.5304Z" fill="#0A66C2"/>
<path d="M29.35 0.000286409H2.34C1.06 0.000286409 0.02 1.01029 0 2.29029V29.4103C0.02 30.6903 1.06 31.7103 2.34 31.7003H29.35C30.63 31.7203 31.68 30.6903 31.7 29.4103V2.29029C31.68 1.01029 30.63 -0.0197136 29.35 0.000286409ZM9.4 27.0103H4.7V11.8903H9.4V27.0103ZM7.05 9.82029C5.54 9.82029 4.33 8.60029 4.33 7.10029C4.33 5.60029 5.55 4.38029 7.05 4.38029C8.55 4.38029 9.77 5.60029 9.77 7.10029C9.77 8.60029 8.55 9.82029 7.05 9.82029ZM22.32 27.0103V19.6503C22.32 17.9003 22.29 15.6403 19.87 15.6403C17.45 15.6403 17.05 17.5503 17.05 19.5203V27.0003H12.36V11.8803H16.87V13.9503H16.93C17.85 12.3803 19.55 11.4403 21.38 11.5003C26.14 11.5003 27.02 14.6303 27.02 18.7003V27.0003H22.33L22.32 27.0103Z" fill="#0A66C2"/>
</g>
<defs>
<clipPath id="clip0_9242_63758">
<rect width="37.07" height="31.81" fill="white"/>
</clipPath>
</defs>
</svg>
