<svg width="32" height="32" viewBox="0 0 32 32" fill="none" xmlns="http://www.w3.org/2000/svg">
<g clip-path="url(#clip0_4086_21937)">
<path d="M32 16C32 7.16 24.84 0 16 0C7.16 0 0 7.16 0 16C0 23.5 5.17 29.8 12.13 31.53V20.89H8.83V16H12.13V13.89C12.13 8.44 14.59 5.92 19.94 5.92C20.95 5.92 22.7 6.12 23.42 6.32V10.75C23.04 10.71 22.39 10.69 21.57 10.69C18.95 10.69 17.93 11.68 17.93 14.27V16H23.16L22.26 20.89H17.93V31.88C25.85 30.92 31.99 24.18 31.99 16H32Z" fill="#0866FF"/>
<path d="M22.2698 20.8899L23.1698 15.9999H17.9398V14.2699C17.9398 11.6899 18.9498 10.6899 21.5798 10.6899C22.3898 10.6899 23.0498 10.7099 23.4298 10.7499V6.31992C22.7098 6.11992 20.9698 5.91992 19.9498 5.91992C14.5998 5.91992 12.1398 8.43992 12.1398 13.8899V15.9999H8.83984V20.8899H12.1398V31.5299C13.3798 31.8399 14.6698 31.9999 16.0098 31.9999C16.6698 31.9999 17.3098 31.9599 17.9498 31.8799V20.8899H22.2798H22.2698Z" fill="white"/>
</g>
<defs>
<clipPath id="clip0_4086_21937">
<rect width="32" height="32" fill="white"/>
</clipPath>
</defs>
</svg>
