<svg xmlns="http://www.w3.org/2000/svg" fill="none" viewBox="0 0 24 24" stroke-width="1.5" stroke="currentColor"><path stroke-linecap="round" stroke-linejoin="round" d="M15.75 15.75V18m-7.5-6.75h.008v.008H8.25v-.008Zm0 2.25h.008v.008H8.25v-.008Zm0 2.25h.008v.008H8.25v-.008Zm0 2.25h.008v.008H8.25v-.008Zm2.25-4.5h.008v.008H10.5v-.008Zm0 2.25h.008v.008H10.5v-.008Zm0 2.25h.008v.008H10.5v-.008Zm2.25-4.5h.008v.008H12.75v-.008Zm0 2.25h.008v.008H12.75v-.008Zm2.25-4.5h.008v.008H15v-.008Zm0 2.25h.008v.008H15v-.008ZM5.25 6.75h13.5A2.25 2.25 0 0 1 21 9v10.5a2.25 2.25 0 0 1-2.25 2.25H5.25A2.25 2.25 0 0 1 3 19.5V9a2.25 2.25 0 0 1 2.25-2.25Zm0-1.5h13.5V3.75H5.25v1.5Z"/></svg>
