<svg width="96" height="96" viewBox="0 0 96 96" fill="none" xmlns="http://www.w3.org/2000/svg">
<path d="M44.3955 19.5542C39.7884 28.5197 43.49 36.3548 51.0079 40.2786C58.5258 44.2025 67.011 42.7284 71.6186 33.7619C78.303 20.7554 69.6556 4.09668 69.6556 4.09668C69.6556 4.09668 51.3201 6.07803 44.3955 19.5542Z" fill="#3F7E37"/>
<path d="M50.8506 40.1971C58.3685 44.1209 66.8537 42.6469 71.4613 33.6804C78.1461 20.6729 69.4988 4.01416 69.4988 4.01416L50.8506 40.1971Z" fill="#0F6C2C"/>
<path d="M27.9268 40.9791C32.0685 46.012 37.6621 45.9575 41.9111 42.6683C46.1592 39.3788 47.453 34.0994 43.3122 29.0677C37.3022 21.7651 25.2108 22.3274 25.2108 22.3274C25.2108 22.3274 21.7024 33.4152 27.9268 40.9791Z" fill="#3F7E37"/>
<path d="M41.8195 42.7368C46.0675 39.4474 47.3614 34.1679 43.2206 29.1362C37.2115 21.8349 25.1191 22.3959 25.1191 22.3959L41.8195 42.7368Z" fill="#0F6C2C"/>
<path d="M45.5789 68.0375L46.5482 49.1029L33.792 32.8905L47.8519 46.2472L61.771 19.0054L51.7834 50.4633L51.7834 68.0375L45.5789 68.0375Z" fill="#B3F340"/>
<path d="M61.3499 67.074L72.5977 59.5939L74.2859 58.3896C76.4 56.8828 79.3489 57.7037 79.8136 59.9639C79.845 60.12 79.8691 60.2703 79.8876 60.4148L81.1908 59.486C83.4419 57.881 86.5833 58.7557 87.0776 61.1624C87.272 62.1104 87.1942 62.9081 87.1942 62.9081C87.2609 64.3013 84.0861 66.6462 84.0861 66.6462L70.2633 76.8124L68.3751 71.4595L64.023 74.6601L61.348 67.0721L61.3499 67.074Z" fill="#B57A61"/>
<path d="M0.448242 68.0696L20.3396 57.8057C20.5812 57.6782 20.853 57.6163 21.1267 57.6257L46.5846 58.4994C46.83 58.5069 47.0678 58.5726 47.283 58.6888L72.8636 72.5678L87.23 62.3695L88.4682 61.5389C91.4827 59.5138 95.5655 61.6607 95.5467 65.2758C95.5467 65.3283 95.5467 65.3564 95.5467 65.3564C95.6996 66.9221 92.5605 69.4215 92.5605 69.4215L80.597 78.7629C80.512 78.8791 80.4101 78.9879 80.2874 79.0816L69.1884 87.6205C68.96 87.7967 68.6863 87.9074 68.3975 87.9374L49.9105 89.938C48.6666 90.073 47.4151 89.7993 46.343 89.1618C46.2769 89.1224 46.2071 89.0868 46.1354 89.0568L27.4917 81.4985C27.0594 81.3241 26.5724 81.3485 26.1609 81.566L0.453911 96V68.0658L0.448242 68.0696Z" fill="#C78A6B"/>
<path d="M75.5301 75.1846L50.5028 70.9723L50.5709 76.7697L68.8019 79.1103C71.085 79.4027 73.9379 79.8184 75.2612 76.8684L75.5301 75.1846Z" fill="#B57A61"/>
<path d="M83.6629 52.7581C83.6629 43.564 76.2123 36.1116 67.0204 36.1116C62.2533 36.1116 57.9558 38.1179 54.923 41.3298C54.8593 41.3963 54.7956 41.4628 54.7334 41.5307C52.0287 44.4907 50.3779 48.4313 50.3779 52.7567C50.3779 61.9509 57.8285 69.4033 67.0204 69.4033C71.3462 69.4033 75.2843 67.7521 78.245 65.0467C78.3129 64.9845 78.3794 64.9208 78.4473 64.8571C81.6584 61.8221 83.6643 57.525 83.6643 52.7567L83.6629 52.7581Z" fill="#FFCD00"/>
<path d="M62.4848 60.1575V53.8523H60.7745V51.6025H62.4848V50.172C62.4848 49.3131 62.6602 48.4881 63.0125 47.6986C63.3633 46.909 63.9221 46.2567 64.6874 45.7416C65.4527 45.2266 66.4529 44.9676 67.6864 44.9676C68.7488 44.9676 69.6358 45.1558 70.346 45.5308C71.0561 45.9058 71.646 46.3515 72.1157 46.8666L70.0531 49.1164C69.7716 48.8192 69.4703 48.573 69.1506 48.3778C68.8309 48.1825 68.4362 48.0849 67.9665 48.0849C67.2479 48.0849 66.7443 48.3396 66.4543 48.8461C66.1643 49.3541 66.0214 49.9201 66.0214 50.5455V51.5997H70.1932V53.8495H66.0214V57.0375H72.185V60.1547H62.4834L62.4848 60.1575Z" fill="#E5B800"/>
<path d="M33.8181 58.3906L50.4857 70.875L50.508 70.8824L50.4616 70.8936L68.8452 77.8528C73.0656 79.7378 74.7277 76.7786 74.7277 76.7786C75.8693 75.376 75.5718 73.901 75.1795 72.9808C74.9545 72.452 74.6032 71.9863 74.1644 71.6153C72.8964 70.5392 71.5782 69.7191 71.5782 69.7191L66.7295 66.7451H66.7202L54.5109 59.1309C52.7874 58.0566 50.7758 57.5353 48.7455 57.6373L33.8181 58.3924V58.3906Z" fill="#C78A6B"/>
</svg>
