<svg width="96" height="96" viewBox="0 0 96 96" fill="none" xmlns="http://www.w3.org/2000/svg">
<path d="M79.4557 78.2763C75.3219 74.0439 71.5954 65.0922 69.3164 55.923C67.4674 52.6606 64.9902 50.3974 62.087 49.8042C58.9072 49.0708 55.2679 50.3898 51.5043 53.8065C51.438 52.9582 51.3089 52.1536 51.1202 51.3931C53.9819 48.7511 56.7742 47.3385 59.3437 47.1309L53.1492 46.422C52.1757 47.1072 51.1887 47.94 50.1946 48.9245C49.831 48.2354 49.3952 47.6127 48.883 47.0625C49.2096 46.7067 49.5339 46.3709 49.8571 46.0452L10.6309 41.5559L5.74617 84.2369L31.3707 87.1696C31.5786 87.0476 31.787 86.9223 31.9957 86.7936C31.9587 86.9386 31.9183 87.0831 31.8813 87.228L32.9227 87.3472C33.0551 86.8742 33.1946 86.3987 33.3349 85.9164C33.7524 85.6286 34.1673 85.3337 34.5808 85.0217C34.3204 85.8394 34.0642 86.6507 33.8233 87.4469L34.9017 87.5703C35.3123 86.302 35.7487 85.0164 36.2139 83.7171C36.7936 83.2309 37.3693 82.7206 37.9377 82.1856C37.192 84.0325 36.5012 85.8754 35.8658 87.6806L37.0214 87.8129C38.0631 85.0745 39.2375 82.2768 40.5379 79.5375C41.5702 78.398 42.5732 77.1874 43.5346 75.8941C46.1733 72.3453 48.1818 68.6531 49.5349 65.0962C54.3986 59.5614 59.2259 57.3783 63.2923 58.4233C66.7445 59.215 69.5924 62.2833 71.4791 66.4653L71.9948 69.0666C70.1322 64.823 67.2786 61.6558 63.7982 60.7829C58.9997 59.4439 53.1191 62.5641 47.3655 70.3733C43.6586 75.4947 40.4986 81.8143 38.0292 87.9282L39.2284 88.0655C41.5985 82.6114 44.5348 77.0865 47.9264 72.5493C53.6367 65.03 59.469 62.0637 64.2372 63.4297C67.794 64.3486 70.6999 67.6235 72.56 71.9482L73.0755 74.6106C71.2319 70.2607 68.3176 66.9102 64.7345 65.9239C59.9852 64.4821 54.1653 67.2803 48.4576 74.5694C45.3692 78.5684 42.6578 83.3767 40.4071 88.2038L41.5829 88.3383C43.6876 84.1623 46.1512 80.0613 48.9256 76.606C54.5782 69.6496 60.3397 67.0345 65.0408 68.5114C68.6424 69.544 71.5629 72.929 73.3887 77.2566L73.8103 79.4607C72.0034 75.176 69.1091 71.7702 65.5293 70.6656C60.8334 69.0842 55.066 71.5427 49.3938 78.3138C46.9022 81.3201 44.6616 84.8399 42.7049 88.4667L44.277 88.6466C46.0855 85.5418 48.1122 82.5535 50.34 79.978C55.9976 73.4832 61.744 71.2087 66.4299 72.8771C69.6939 73.9456 72.3954 76.8954 74.2266 80.6405L74.6213 82.723C72.8135 79.0415 70.1451 76.0989 66.9183 74.9737C62.2409 73.2011 56.4822 75.3149 50.8117 81.6251C48.8917 83.7715 47.1171 86.2226 45.5065 88.7874L47.0115 88.9596C48.3612 87.009 49.8126 85.1514 51.3605 83.4913C56.9914 77.468 62.7017 75.5081 67.3488 77.3077C70.5592 78.4581 73.2138 81.3721 75.0263 84.9828C74.9782 84.5706 74.9304 84.1549 74.8853 83.7464C74.7712 83.1672 74.6613 82.5818 74.558 81.9971C74.4522 81.4053 74.356 80.8181 74.2628 80.2345C75.1285 84.6251 76.2699 88.8065 77.5876 92.4589L78.6289 92.5781C76.5767 88.1772 74.8209 82.495 73.5844 76.4688C73.4459 75.8055 73.3145 75.1396 73.1902 74.4712C73.0725 73.834 72.9608 73.2042 72.8588 72.579C74.5306 80.6008 77.1564 88.1079 80.1977 92.7576L83.651 93.1529C83.1646 92.8531 82.6829 92.4828 82.2067 92.035C78.0211 88.2544 74.2848 78.8235 72.1231 68.7186C71.9801 68.065 71.8442 67.4087 71.715 66.7533C71.6789 66.5627 71.6459 66.3759 71.6098 66.1853C71.3075 65.1101 71.031 64.0174 70.7653 62.9192L70.8503 63.3357C69.0449 59.4546 66.4107 56.6006 63.2358 55.7356C59.5978 54.6345 55.3107 56.2014 50.9227 60.5534C51.1991 59.3274 51.3862 58.1387 51.4828 56.9972C55.4085 53.3245 59.2258 51.9072 62.5395 52.6898C65.5143 53.3116 68.0454 55.6691 69.9072 59.0279C69.8446 58.7122 69.7824 58.3932 69.7228 58.0813C69.8047 58.4365 69.8865 58.7916 69.9722 59.1438C69.9859 59.1725 70.0034 59.1982 70.0205 59.2273L70.1512 59.8693C72.4026 69.0421 76.0433 77.8214 80.0865 81.8942C83.9967 85.9993 88.4075 85.7007 92.6589 80.5196L93.1518 76.2133C88.5701 82.3465 83.7268 82.8261 79.4587 78.2801L79.4557 78.2763ZM16.7077 80.0475C15.0281 79.8552 13.8215 78.3544 14.0118 76.6915C14.2021 75.0286 15.7166 73.8392 17.3962 74.0314C19.0759 74.2236 20.282 75.7278 20.0921 77.3874C19.9022 79.047 18.3874 80.2397 16.7077 80.0475ZM26.7461 65.0711L16.3223 63.8781L17.0878 57.1896L15.2469 56.9789L15.5203 54.5899L17.3612 54.8006L17.5354 53.2782C17.64 52.3647 17.9318 51.51 18.4037 50.7166C18.8757 49.9231 19.5567 49.296 20.4425 48.8414C21.3283 48.3869 22.438 48.2359 23.7616 48.3874C24.9037 48.5181 25.8352 48.8247 26.5518 49.3135C27.2684 49.8023 27.8493 50.3467 28.2908 50.9498L25.8002 53.0851C25.5343 52.7326 25.2379 52.4377 24.9224 52.1914C24.6068 51.9451 24.1921 51.7926 23.6848 51.7345C22.9122 51.6461 22.3407 51.8519 21.9696 52.3585C21.5952 52.8648 21.3721 53.4461 21.2963 54.1086L21.168 55.2295L25.6493 55.7423L25.3759 58.1313L20.8946 57.6185L20.5071 61.0046L27.1349 61.7631L26.7558 65.0756L26.7461 65.0711Z" fill="#DDDDC0"/>
<path d="M62.5555 90.7391L70.3221 91.628C67.9735 90.4711 65.3305 90.1618 62.5555 90.7391Z" fill="#DDDDC0"/>
<path d="M68.7732 83.6914C64.1735 81.6565 58.4985 83.1291 52.886 88.4561C52.5273 88.7947 52.1735 89.1509 51.826 89.5111L53.8382 89.7414C59.2746 85.0009 64.739 83.7924 69.1947 85.8074C71.9704 86.9793 74.3221 89.3874 76.0631 92.2849L76.1269 92.2922C76.0129 91.6826 75.903 91.0666 75.8003 90.4481C74.0467 87.3932 71.6366 84.87 68.7699 83.691L68.7732 83.6914Z" fill="#DDDDC0"/>
<path d="M80.7255 85.1711C77.2617 81.8052 74.1022 74.8572 71.854 67.0543C74.067 76.3549 77.6193 84.9545 81.5735 88.6748C84.7491 91.7942 88.2634 91.776 91.7511 88.3922L92.2293 84.2131C88.3143 88.5955 84.3093 88.7981 80.7226 85.1673L80.7255 85.1711Z" fill="#DDDDC0"/>
<path d="M76.7797 64.8211C73.4654 61.0995 70.4142 54.8114 68.1154 48.1348L67.7593 48.0941C70.0992 56.077 73.5914 63.924 77.4302 68.1769C81.8213 73.2251 86.7884 73.5664 91.4609 68.4538C92.5229 67.3517 93.5254 66.0562 94.4729 64.6461L94.9137 60.7949C93.6656 62.7198 92.3094 64.4595 90.8466 65.8514C86.1701 70.5534 81.1944 69.9602 76.7797 64.8211Z" fill="#DDDDC0"/>
<path d="M56.0549 89.9946L58.964 90.3275C62.8875 88.4884 66.6696 88.3891 69.9099 89.9328C71.014 90.4253 72.0482 91.1131 73.0058 91.9345L74.7391 92.1329C73.348 90.4009 71.7052 88.9654 69.8591 88.0863C65.8683 86.0534 61.0073 86.5987 56.0582 89.995L56.0549 89.9946Z" fill="#DDDDC0"/>
<path d="M86.8401 50.2778L77.7633 49.239C80.771 51.1493 83.8673 51.5714 86.8401 50.2778Z" fill="#DDDDC0"/>
<path d="M78.0954 71.2428C74.0135 66.8536 70.3167 58.2374 67.9884 49.588C67.6353 49.0154 67.2571 48.484 66.8608 47.9912L62.5173 47.4941C64.9014 48.2517 66.9726 50.1667 68.5955 52.8473C68.5966 52.8373 68.5911 52.8265 68.5889 52.816C68.4647 52.2357 68.3498 51.6633 68.2405 51.1016C68.3996 51.7639 68.5687 52.4273 68.7415 53.0878C68.7501 53.1023 68.7586 53.1168 68.7672 53.1314L68.8154 53.364C71.123 62.0754 74.757 70.5861 78.7755 74.8155C83.0917 79.5365 87.9824 79.3267 92.5989 73.5128C92.9388 73.1009 93.2746 72.6647 93.6018 72.214L94.0759 68.0717C93.404 69.0355 92.7059 69.9319 91.9803 70.7404C87.3518 76.1529 82.438 76.0889 78.092 71.2424L78.0954 71.2428Z" fill="#DDDDC0"/>
<path d="M89.8223 60.7817C85.096 64.7593 80.0585 63.6642 75.583 58.2842C73.4141 55.7649 71.3572 52.238 69.5449 48.2984L68.8159 48.215C70.8311 53.2964 73.2652 57.958 75.8807 61.0945C80.4265 66.7537 85.6059 67.7973 90.4533 63.2674C92.2275 61.7111 93.8486 59.6493 95.3064 57.3788L95.7158 53.802C94.0047 56.5316 92.0336 59.0347 89.8257 60.782L89.8223 60.7817Z" fill="#DDDDC0"/>
<path d="M88.0702 54.2795C89.5788 53.4386 90.97 52.2555 92.252 50.8972L89.793 50.6157C89.0375 51.1801 88.2554 51.6804 87.4317 52.0675C83.3526 54.1667 79.0354 52.9337 75.0223 48.9253L72.953 48.6884C73.1419 48.9406 73.3316 49.186 73.5259 49.4218C78.1062 55.2544 83.254 57.169 88.0673 54.2758L88.0702 54.2795Z" fill="#DDDDC0"/>
<path d="M68.2948 81.7783C71.2595 82.9346 73.748 85.5448 75.53 88.7385C75.4314 88.0832 75.3358 87.4316 75.2499 86.7844C73.4551 83.4062 70.8967 80.6626 67.8297 79.5082C63.1985 77.629 57.5002 79.4243 51.8756 85.2144C50.7027 86.4225 49.5915 87.7462 48.5309 89.1332L50.2508 89.3301C50.9532 88.5156 51.6761 87.7305 52.4242 86.9924C58.0212 81.4737 63.6873 79.8409 68.2952 81.775L68.2948 81.7783Z" fill="#DDDDC0"/>
<path d="M88.6353 93.7233L91.1144 94.007L91.3346 92.0831C90.4292 92.8574 89.5267 93.3982 88.6353 93.7233Z" fill="#DDDDC0"/>
<path d="M74.9003 55.4468C79.4216 61.0218 84.5187 62.3984 89.2908 58.7344C91.768 56.9535 93.9484 54.2269 95.7975 51.3029L94.1045 51.1092C92.497 53.2302 90.6829 55.1345 88.6645 56.4153C83.8876 59.6753 78.7789 58.0432 74.2377 52.3744C73.3049 51.2473 72.392 49.9463 71.5134 48.5237L70.3477 48.3903C71.7688 51.1088 73.3043 53.5421 74.9036 55.4472L74.9003 55.4468Z" fill="#DDDDC0"/>
<path d="M20.8886 57.6145L25.3698 58.1273L25.6432 55.7383L21.162 55.2255L21.2903 54.1046C21.3665 53.4387 21.5895 52.8575 21.9636 52.3545C22.338 51.8482 22.9095 51.6425 23.6788 51.7305C24.186 51.7886 24.6008 51.9411 24.9163 52.1874C25.2319 52.4337 25.5283 52.7286 25.7942 53.0811L28.2847 50.9458C27.8466 50.3431 27.2624 49.7983 26.5458 49.3095C25.8292 48.8207 24.9011 48.5145 23.7556 48.3834C22.432 48.2319 21.3223 48.3829 20.4365 48.8374C19.5506 49.292 18.8697 49.9191 18.3977 50.7125C17.9257 51.506 17.6335 52.3641 17.5294 53.2742L17.3552 54.7966L15.5143 54.5859L15.2409 56.9749L17.0817 57.1856L16.3163 63.8741L26.7434 65.0675L27.1225 61.755L20.4947 60.9965L20.8822 57.6104L20.8886 57.6145Z" fill="#001276"/>
<path d="M17.395 74.0315C15.7153 73.8392 14.2005 75.0319 14.0106 76.6915C13.8206 78.3511 15.0268 79.8553 16.7064 80.0475C18.3861 80.2397 19.9005 79.0503 20.0908 77.3874C20.2812 75.7245 19.0746 74.2237 17.395 74.0315Z" fill="#001276"/>
<path d="M74.5561 81.9965C74.6589 82.5845 74.7726 83.167 74.8834 83.7458C74.9251 84.154 74.9732 84.5662 75.0243 84.9822C73.2118 81.3715 70.5539 78.4571 67.3469 77.3071C62.6998 75.5075 56.9894 77.4674 51.3585 83.4907C49.8106 85.1508 48.3626 87.0088 47.0095 88.959L48.5309 89.1332C49.5915 87.7462 50.7027 86.4225 51.8756 85.2144C57.5002 79.4243 63.1985 77.629 67.8297 79.5082C70.8967 80.6626 73.4551 83.4062 75.2499 86.7844C75.3358 87.4316 75.4281 88.0828 75.53 88.7385C73.748 85.5448 71.2595 82.9346 68.2948 81.7783C63.6903 79.8446 58.0245 81.4774 52.4242 86.9957C51.6765 87.7304 50.9536 88.5155 50.2508 89.3333L51.8263 89.5137C52.1739 89.1534 52.5277 88.7973 52.8864 88.4587C58.4988 83.1316 64.1772 81.6595 68.7736 83.694C71.6366 84.8759 74.0504 87.3962 75.804 90.4511C75.9068 91.0696 76.0167 91.6855 76.1307 92.2952L77.5852 92.4617C76.2676 88.8092 75.1299 84.6248 74.2605 80.2373C74.3537 80.8208 74.4495 81.4114 74.5557 81.9998L74.5561 81.9965Z" fill="#99B0BE"/>
<path d="M50.1978 48.9248C51.1916 47.9437 52.1789 47.1075 53.1524 46.4223L49.8603 46.0456C49.5372 46.3713 49.2099 46.7033 48.8863 47.0629C49.3985 47.613 49.8343 48.2358 50.1978 48.9248Z" fill="#99B0BE"/>
<path d="M31.3716 87.1704L31.8822 87.2288C31.9192 87.0839 31.9595 86.9393 31.9965 86.7944C31.7878 86.9231 31.5795 87.0484 31.3716 87.1704Z" fill="#99B0BE"/>
<path d="M33.3321 85.9191C33.1918 86.4013 33.0556 86.8773 32.9199 87.3499L33.8235 87.4533C34.0648 86.6538 34.3176 85.8421 34.5809 85.0281C34.1675 85.3401 33.7492 85.6346 33.335 85.9228L33.3321 85.9191Z" fill="#99B0BE"/>
<path d="M75.586 58.2846C80.0619 63.6612 85.1027 64.7601 89.8257 60.782C92.0336 59.0347 94.0047 56.5316 95.7158 53.802L95.9988 51.326L95.7975 51.3029C93.9484 54.2269 91.768 56.9535 89.2908 58.7344C84.5187 62.3984 79.4249 61.0222 74.9003 55.4468C73.3009 53.5418 71.7686 51.1088 70.3441 48.3899L69.5412 48.298C71.3535 52.2375 73.4104 55.7644 75.5793 58.2838L75.586 58.2846Z" fill="#99B0BE"/>
<path d="M80.0831 81.894C76.0399 77.8211 72.4025 69.0422 70.1478 59.8691L70.0171 59.227C70.0033 59.1983 69.9858 59.1726 69.9687 59.1435C69.8835 58.788 69.8013 58.4362 69.7194 58.0811C69.779 58.393 69.8412 58.7119 69.9037 59.0276C68.0424 55.6654 65.5109 53.3113 62.5361 52.6895C59.2224 51.9069 55.4051 53.3243 51.4794 56.9969C51.3824 58.1418 51.1953 59.3305 50.9193 60.5531C55.3106 56.2015 59.5944 54.6342 63.2324 55.7353C66.4039 56.6 69.0382 59.4539 70.8469 63.3355L70.7618 62.919C71.0275 64.0171 71.3041 65.1098 71.6064 66.1851C71.6425 66.3756 71.6755 66.5625 71.7116 66.753C71.8408 67.4085 71.9763 68.068 72.1197 68.7183C74.2847 78.8236 78.0177 88.2541 82.2032 92.0348C82.6761 92.4821 83.1579 92.8525 83.6476 93.1526L88.6328 93.7231C89.5272 93.4018 90.4297 92.861 91.3321 92.0829L91.7541 88.3957C88.2631 91.7792 84.7522 91.7977 81.5766 88.6783C77.619 84.9577 74.0666 76.358 71.8571 67.0578C74.1053 74.8608 77.2647 81.8087 80.7286 85.1746C84.3153 88.8053 88.3203 88.6027 92.2354 84.2203L92.6589 80.5196C88.4071 85.7041 83.9967 85.9993 80.0865 81.8942L80.0831 81.894Z" fill="#99B0BE"/>
<path d="M36.2145 83.721C35.7526 85.0206 35.3125 86.3092 34.9023 87.5741L35.8664 87.6845C36.5022 85.8759 37.1929 84.0329 37.9382 82.1894C37.3666 82.724 36.7942 83.2348 36.2145 83.721Z" fill="#99B0BE"/>
<path d="M58.964 90.3275L62.5555 90.7391C65.3305 90.1618 67.9702 90.4707 70.3221 91.628L73.0058 91.9345C72.0482 91.1131 71.014 90.4253 69.9099 89.9328C66.6696 88.3891 62.8875 88.4884 58.964 90.3275Z" fill="#99B0BE"/>
<path d="M69.1981 85.8071C64.7424 83.7921 59.278 85.0006 53.8415 89.7411L56.0549 89.9946C61.0006 86.5979 65.862 86.0524 69.8562 88.0858C71.7052 88.9686 73.3451 90.4003 74.7362 92.1324L76.0665 92.2846C74.3255 89.3871 71.9738 86.979 69.1981 85.8071Z" fill="#99B0BE"/>
<path d="M87.4317 52.0675C88.2524 51.6767 89.0379 51.1768 89.793 50.6157L86.8401 50.2778C83.8673 51.5714 80.771 51.1493 77.7633 49.239L75.0247 48.9256C79.0379 52.9339 83.3551 54.167 87.4342 52.0678L87.4317 52.0675Z" fill="#99B0BE"/>
<path d="M77.4302 68.1769C73.5914 63.924 70.0992 56.077 67.7593 48.0941L66.863 47.9915C67.2592 48.4843 67.6341 49.0153 67.9905 49.5883C70.3188 58.2377 74.0152 66.8572 78.0975 71.243C82.4435 76.0895 87.3569 76.1569 91.9858 70.741C92.711 69.9359 93.4095 69.0361 94.0814 68.0724L94.4739 64.6428C93.5263 66.053 92.5238 67.3484 91.4618 68.4505C86.7894 73.5632 81.8222 73.2218 77.4312 68.1736L77.4302 68.1769Z" fill="#99B0BE"/>
<path d="M63.7884 60.7851C67.2687 61.658 70.1253 64.829 71.9849 69.0689L71.4692 66.4675C69.5859 62.2859 66.7347 59.2173 63.2825 58.4256C59.216 57.3805 54.3888 59.5636 49.5251 65.0984C48.1719 68.6554 46.1634 72.3475 43.5247 75.8963C42.5637 77.1863 41.5604 78.4002 40.5281 79.5397C39.228 82.2756 38.0536 85.0734 37.0115 87.8151L38.0126 87.9297C40.482 81.8158 43.642 75.4962 47.3489 70.3747C53.0996 62.5618 58.9798 59.445 63.7816 60.7844L63.7884 60.7851Z" fill="#99B0BE"/>
<path d="M88.6645 56.4153C90.6833 55.1311 92.4974 53.2269 94.1045 51.1092L92.252 50.8972C90.9704 52.2522 89.5788 53.4386 88.0702 54.2795C83.257 57.1727 78.1085 55.2547 73.5278 49.4254C73.3369 49.19 73.1476 48.9412 72.9549 48.6921L71.5104 48.5267C72.3923 49.9497 73.3019 51.2504 74.2347 52.3775C78.7759 58.0463 83.8846 59.6784 88.6616 56.4184L88.6645 56.4153Z" fill="#99B0BE"/>
<path d="M78.779 74.8159C74.7605 70.5865 71.1265 62.0758 68.8189 53.3644L68.7707 53.1318C68.7707 53.1318 68.7536 53.1027 68.745 53.0882C68.5688 52.4273 68.4031 51.7643 68.244 51.102C68.3533 51.6637 68.4682 52.2361 68.5924 52.8164C68.5946 52.8269 68.5968 52.8373 68.599 52.8477C66.9728 50.1667 64.9049 48.2521 62.5208 47.4945L59.3463 47.1312C56.7765 47.3422 53.9845 48.7514 51.1229 51.3934C51.3115 52.1539 51.4406 52.9585 51.5069 53.8068C55.2706 50.3901 58.9095 49.0744 62.0897 49.8045C64.9899 50.394 67.4704 52.6575 69.319 55.9233C71.5984 65.0891 75.3245 74.0442 79.4584 78.2766C83.7265 82.8227 88.5698 82.3431 93.1514 76.2099L93.6086 72.2148C93.278 72.6651 92.9456 73.1016 92.6058 73.5136C87.9892 79.3275 83.0985 79.5373 78.7824 74.8163L78.779 74.8159Z" fill="#99B0BE"/>
<path d="M75.877 61.0941C73.2615 57.9575 70.8274 53.296 68.8122 48.2146L68.1135 48.1346C70.409 54.8108 73.4635 61.0992 76.7778 64.8209C81.1891 69.9596 86.1682 70.5531 90.8447 65.8511C92.3075 64.4592 93.664 62.7162 94.9118 60.7946L95.3027 57.3784C93.8479 59.6526 92.2238 61.7107 90.4496 63.267C85.6022 67.7969 80.4227 66.7533 75.877 61.0941Z" fill="#99B0BE"/>
<path d="M73.1854 74.4709C73.3097 75.1393 73.4411 75.8052 73.5796 76.4685C74.8162 82.4947 76.5716 88.1803 78.6242 92.5778L80.193 92.7574C77.152 88.1043 74.5225 80.6001 72.8541 72.5787C72.9594 73.2044 73.0678 73.8337 73.1854 74.4709Z" fill="#99B0BE"/>
<path d="M65.5293 70.6656C69.1095 71.7669 72.0034 75.176 73.8103 79.4607L73.3887 77.2566C71.5629 72.929 68.639 69.5436 65.0408 68.5114C60.3401 67.0311 54.5786 69.6462 48.9256 76.606C46.1479 80.0609 43.6872 84.1656 41.5829 88.3383L42.7109 88.4674C44.6673 84.8439 46.9083 81.3207 49.3998 78.3144C55.0691 71.5396 60.8399 69.0815 65.5354 70.6663L65.5293 70.6656Z" fill="#99B0BE"/>
<path d="M64.7269 65.9267C68.3099 66.913 71.2239 70.2668 73.0679 74.6133L72.5524 71.951C70.6923 67.6263 67.7863 64.3514 64.2296 63.4325C59.4643 62.0702 53.629 65.0328 47.9188 72.5521C44.5242 77.0855 41.5875 82.6138 39.2208 88.0682L40.4032 88.2036C42.6539 83.3765 45.3619 78.5678 48.4537 74.5692C54.158 67.2798 59.9813 64.4819 64.7306 65.9237L64.7269 65.9267Z" fill="#99B0BE"/>
<path d="M66.9179 74.9776C70.141 76.1057 72.8097 79.045 74.6209 82.7268L74.2262 80.6444C72.3951 76.8993 69.6935 73.9495 66.4296 72.881C61.747 71.2129 55.9976 73.4837 50.3396 79.9818C48.1152 82.5577 46.0852 85.5457 44.2766 88.6505L45.5028 88.7908C47.1167 86.2264 48.8909 83.7787 50.808 81.6286C56.4785 75.3184 62.2371 73.2046 66.9146 74.9772L66.9179 74.9776Z" fill="#99B0BE"/>
<path d="M77.2027 71.9966C72.9208 67.914 68.878 59.1006 66.274 50.0184C64.3101 46.8238 61.7539 44.6503 58.8315 44.1608C55.6276 43.541 52.0375 44.9888 48.3979 48.5373C48.3014 47.6919 48.1437 46.8924 47.9282 46.1391C50.6939 43.3969 53.4342 41.8858 55.9946 41.5869L49.7788 41.0989C48.8304 41.8183 47.8737 42.6857 46.9152 43.705C46.5274 43.0293 46.0697 42.4225 45.5382 41.8909C45.8519 41.5237 46.1641 41.1766 46.4754 40.8396L7.11426 37.7495L3.75205 80.5774L29.4647 82.5959C29.6682 82.4667 29.8719 82.334 30.0759 82.198C30.0441 82.3441 30.0089 82.49 29.9771 82.6362L31.0221 82.7182C31.1375 82.2408 31.26 81.7606 31.383 81.2737C31.79 80.9712 32.1942 80.6617 32.5963 80.3352C32.3652 81.1616 32.1381 81.9815 31.9257 82.7858L33.0077 82.8707C33.3729 81.5886 33.7633 80.2883 34.182 78.9733C34.744 78.4668 35.3012 77.9362 35.8501 77.3814C35.1706 79.2536 34.5459 81.12 33.9752 82.9467L35.1347 83.0377C36.0783 80.264 37.1524 77.4262 38.3545 74.6424C39.3455 73.4669 40.3048 72.2213 41.2195 70.8946C43.7302 67.2541 45.606 63.4928 46.8317 59.8899C51.4953 54.1855 56.2417 51.832 60.3428 52.7316C63.821 53.3999 66.7763 56.3648 68.8107 60.477L69.4186 63.0583C67.4061 58.8837 64.4416 55.8201 60.9324 55.0716C56.0892 53.9043 50.3234 57.2318 44.8515 65.2409C41.3292 70.491 38.3962 76.9191 36.146 83.1171L37.3494 83.2115C39.5238 77.6765 42.2616 72.0506 45.4895 67.3956C50.9284 59.6778 56.6515 56.5057 61.4653 57.7011C65.0525 58.4929 68.0732 61.6622 70.0861 65.918L70.6961 68.5603C68.6988 64.2787 65.667 61.0342 62.0511 60.176C57.2535 58.9042 51.5368 61.9079 46.0922 69.3955C43.1482 73.5019 40.6097 78.4036 38.5323 83.3078L39.712 83.4004C41.6667 79.1521 43.9829 74.966 46.6324 71.4141C52.0338 64.2609 57.6986 61.4423 62.4493 62.751C66.0853 63.6547 69.1246 66.9336 71.1032 71.1934L71.603 73.3812C69.6448 69.1635 66.631 65.8629 63.0142 64.8865C58.265 63.4732 52.5887 66.1354 47.1611 73.1041C44.7782 76.1973 42.6643 79.7946 40.8379 83.4888L42.4155 83.6126C44.1123 80.4454 46.0313 77.3868 48.166 74.7336C53.5888 68.0415 59.2506 65.5639 63.993 67.0645C67.2929 68.0161 70.0977 70.8679 72.061 74.5454L72.5296 76.6125C70.5919 72.9978 67.8205 70.152 64.5556 69.1423C59.8181 67.5374 54.1384 69.8548 48.696 76.363C46.8536 78.5763 45.1675 81.089 43.6492 83.7095L45.1593 83.828C46.4387 81.8306 47.8231 79.9226 49.3109 78.2084C54.7238 71.9885 60.3608 69.8265 65.069 71.4595C68.3183 72.495 71.0749 75.3126 73.0148 78.8565C72.952 78.4462 72.8896 78.0326 72.8299 77.6259C72.6953 77.0511 72.5645 76.47 72.4405 75.8893C72.3137 75.3017 72.1967 74.7182 72.0828 74.1384C73.1042 78.4953 74.3937 82.6335 75.8406 86.2367L76.8855 86.3187C74.678 81.9937 72.721 76.3775 71.2707 70.3992C71.1087 69.7412 70.9537 69.0805 70.8057 68.4169C70.6654 67.7843 70.5313 67.1589 70.4071 66.5377C72.3635 74.4949 75.2548 81.9038 78.4597 86.4423L81.9249 86.7143C81.4282 86.4321 80.9336 86.0791 80.4417 85.6486C76.1242 82.0194 72.0545 72.7275 69.5345 62.7059C69.3683 62.0578 69.2091 61.4068 69.0567 60.7564C69.0139 60.5672 68.9742 60.3817 68.9314 60.1925C68.5909 59.1287 68.2757 58.0466 67.971 56.9586L68.0709 57.3718C66.1285 53.5574 63.3943 50.799 60.1906 50.0475C56.5157 49.0766 52.2871 50.7952 48.0568 55.3006C48.2894 54.0656 48.4341 52.8709 48.49 51.7268C52.2825 47.9166 56.0469 46.3643 59.3864 47.0285C62.3814 47.544 64.9948 49.8098 66.975 53.1002C66.9012 52.787 66.8277 52.4705 66.757 52.1609C66.8515 52.5129 66.946 52.8648 67.0441 53.2137C67.0588 53.2419 67.0772 53.267 67.0953 53.2955L67.2488 53.9325C69.8253 63.0193 73.7762 71.6634 77.9618 75.5897C82.0157 79.553 86.4131 79.0976 90.4774 73.7684L90.8166 69.4473C86.4562 75.7397 81.6331 76.3914 77.2058 72.0002L77.2027 71.9966ZM14.5575 76.0003C12.8721 75.868 11.6129 74.4111 11.7439 72.7425C11.8749 71.0738 13.346 69.8313 15.0314 69.9636C16.7168 70.0959 17.9758 71.5561 17.8451 73.2214C17.7143 74.8868 16.2429 76.1326 14.5575 76.0003ZM24.0564 60.6761L13.5967 59.855L14.1236 53.1434L12.2764 52.9984L12.4646 50.6012L14.3118 50.7462L14.4317 49.2185C14.5037 48.3019 14.7649 47.4374 15.2083 46.6276C15.6517 45.8179 16.3099 45.1669 17.179 44.6811C18.0481 44.1954 19.1518 44.005 20.4799 44.1092C21.6259 44.1992 22.5677 44.4725 23.3013 44.9354C24.0348 45.3984 24.6347 45.9218 25.0974 46.5088L22.6844 48.7314C22.4061 48.3886 22.0994 48.1044 21.7753 47.8695C21.4512 47.6346 21.0313 47.4969 20.5223 47.457C19.747 47.3961 19.1832 47.6221 18.8304 48.1416C18.4742 48.6609 18.272 49.2498 18.2198 49.9145L18.1315 51.0393L22.6282 51.3923L22.44 53.7895L17.9433 53.4365L17.6765 56.8343L24.3272 57.3564L24.0662 60.6803L24.0564 60.6761Z" fill="#DDDDC0"/>
<path d="M60.7568 85.0531L68.5502 85.6649C66.1619 84.5923 63.5096 84.3774 60.7568 85.0531Z" fill="#DDDDC0"/>
<path d="M66.7198 77.7885C62.0505 75.9187 56.4315 77.5923 51.0122 83.1158C50.6658 83.4669 50.3249 83.8354 49.9904 84.2078L52.0095 84.3663C57.2737 79.4353 62.6917 78.0331 67.2163 79.8882C70.0319 80.9605 72.4679 83.2834 74.3109 86.1171L74.375 86.1221C74.2393 85.5169 74.1076 84.9052 73.9829 84.2908C72.1216 81.3002 69.6233 78.8644 66.7164 77.7883L66.7198 77.7885Z" fill="#DDDDC0"/>
<path d="M78.7172 78.8417C75.1356 75.6013 71.7309 68.7702 69.2063 61.0523C71.7489 70.2682 75.6052 78.7359 79.6894 82.3131C82.974 85.3174 86.4854 85.1742 89.8503 81.6683L90.1796 77.4748C86.423 81.9938 82.4277 82.3389 78.714 78.8381L78.7172 78.8417Z" fill="#DDDDC0"/>
<path d="M74.0494 58.6451C70.6047 55.0438 67.3316 48.8684 64.7966 42.2779L64.4393 42.2498C67.0619 50.1444 70.8312 57.8621 74.819 61.9756C79.3869 66.8643 84.3631 67.0286 88.8505 61.7529C89.8727 60.6137 90.8284 59.2834 91.7251 57.8403L92.0285 53.9759C90.8498 55.944 89.5563 57.7309 88.1441 59.174C83.6379 64.0395 78.6442 63.6238 74.0494 58.6451Z" fill="#DDDDC0"/>
<path d="M54.2338 84.5404L57.153 84.7696C61.0085 82.792 64.7847 82.5581 68.0778 83.9855C69.1988 84.4383 70.2568 85.0889 71.243 85.8757L72.9824 86.0123C71.5305 84.3308 69.8376 82.9548 67.9614 82.142C63.9008 80.2524 59.0622 80.9704 54.2372 84.5407L54.2338 84.5404Z" fill="#DDDDC0"/>
<path d="M83.5857 43.7529L74.4777 43.0379C77.5514 44.8399 80.6608 45.1516 83.5857 43.7529Z" fill="#DDDDC0"/>
<path d="M75.5928 65.0159C71.3573 60.7749 67.3561 52.2957 64.7213 43.7347C64.3481 43.175 63.9512 42.6574 63.5377 42.179L59.1792 41.8369C61.5887 42.5091 63.7268 44.3492 65.4441 46.9703C65.4449 46.9602 65.4389 46.9496 65.4364 46.9393C65.2916 46.3638 65.1565 45.7958 65.0272 45.2384C65.2097 45.8945 65.4024 46.5515 65.5986 47.2054C65.6077 47.2196 65.6167 47.2338 65.6258 47.2481L65.6823 47.4788C68.2985 56.1026 72.2332 64.4785 76.3997 68.5621C80.8812 73.1265 85.7613 72.7428 90.168 66.7682C90.493 66.3444 90.813 65.8966 91.124 65.4346L91.4503 61.278C90.8132 62.2651 90.1474 63.1857 89.4511 64.0195C85.0182 69.5934 80.1052 69.7043 75.5894 65.0156L75.5928 65.0159Z" fill="#DDDDC0"/>
<path d="M86.9399 54.144C82.3582 58.2874 77.285 57.3722 72.6207 52.155C70.3636 49.7144 68.1824 46.263 66.231 42.3905L65.4995 42.3331C67.6943 47.3395 70.2928 51.9115 73.0183 54.9529C77.7626 60.4467 82.9759 61.3052 87.659 56.6057C89.3767 54.9872 90.9234 52.8689 92.2994 50.5481L92.5812 46.9589C90.9683 49.7477 89.0876 52.3194 86.9433 54.1442L86.9399 54.144Z" fill="#DDDDC0"/>
<path d="M84.9575 47.7083C86.4352 46.8143 87.7834 45.5824 89.0162 44.1792L86.5487 43.9855C85.8138 44.5764 85.05 45.1043 84.2406 45.5204C80.2388 47.7635 75.8805 46.6849 71.7272 42.822L69.6508 42.6589C69.8486 42.9042 70.0469 43.1427 70.2494 43.3714C75.0345 49.0373 80.2472 50.7674 84.9544 47.7047L84.9575 47.7083Z" fill="#DDDDC0"/>
<path d="M66.1735 75.8937C69.1775 76.9437 71.7574 79.4636 73.6519 82.5919C73.53 81.9405 73.4113 81.2927 73.3024 80.649C71.3885 77.3368 68.734 74.686 65.6279 73.6415C60.9328 71.9284 55.302 73.9254 49.887 79.9121C48.7579 81.1612 47.6945 82.5235 46.684 83.9475L48.4098 84.083C49.0828 83.244 49.7772 82.4337 50.4986 81.6694C55.8956 75.955 61.5 74.1215 66.1738 75.8903L66.1735 75.8937Z" fill="#DDDDC0"/>
<path d="M86.9263 87.1069L89.414 87.3022L89.5655 85.3717C88.6883 86.1778 87.8056 86.7503 86.9263 87.1069Z" fill="#DDDDC0"/>
<path d="M71.8374 49.3437C76.5543 54.7542 81.6972 55.9484 86.3359 52.1169C88.7481 50.249 90.8301 47.4464 92.5739 44.4585L90.875 44.3252C89.3441 46.5021 87.599 48.4697 85.6275 49.8216C80.9696 53.2496 75.806 51.8004 71.0659 46.2968C70.0935 45.2037 69.1349 43.9359 68.2062 42.5455L67.0365 42.4537C68.5536 45.1199 70.1747 47.4971 71.8408 49.344L71.8374 49.3437Z" fill="#DDDDC0"/>
<path d="M17.9371 53.4327L22.4338 53.7857L22.622 51.3885L18.1253 51.0355L18.2136 49.9108C18.2661 49.2426 18.4683 48.6538 18.8242 48.1379C19.1804 47.6186 19.7442 47.3926 20.5161 47.4532C21.0251 47.4931 21.445 47.6308 21.7692 47.8657C22.0933 48.1006 22.3999 48.3848 22.6783 48.7276L25.0912 46.505C24.6319 45.9183 24.0286 45.3946 23.2951 44.9316C22.5615 44.4687 21.6232 44.1957 20.4737 44.1055C19.1456 44.0012 18.0419 44.1916 17.1729 44.6774C16.3038 45.1631 15.6456 45.8141 15.2022 46.6239C14.7587 47.4336 14.4973 48.3015 14.4256 49.2147L14.3056 50.7424L12.4584 50.5974L12.2702 52.9946L14.1174 53.1396L13.5906 59.8512L24.0536 60.6726L24.3146 57.3487L17.6639 56.8266L17.9306 53.4288L17.9371 53.4327Z" fill="#001276"/>
<path d="M15.0302 69.9637C13.3447 69.8314 11.8733 71.0773 11.7426 72.7426C11.6119 74.4079 12.8708 75.8681 14.5562 76.0004C16.2417 76.1327 17.7128 74.8902 17.8438 73.2215C17.9748 71.5529 16.7156 70.096 15.0302 69.9637Z" fill="#001276"/>
<path d="M72.4386 75.8888C72.5623 76.4728 72.6967 77.0509 72.8279 77.6253C72.8842 78.0318 72.947 78.4421 73.0128 78.856C71.0729 75.312 68.3129 72.4942 65.067 71.459C60.3588 69.8259 54.7218 71.988 49.3089 78.2079C47.8211 79.922 46.4401 81.8304 45.1573 83.8275L46.684 83.9475C47.6945 82.5235 48.7579 81.1612 49.887 79.9121C55.302 73.9254 60.9328 71.9284 65.6279 73.6415C68.734 74.686 71.3885 77.3368 73.3024 80.649C73.4113 81.2927 73.5267 81.9402 73.6519 82.5919C71.7574 79.4636 69.1775 76.9437 66.1735 75.8937C61.5031 74.1251 55.899 75.9585 50.4987 81.6727C49.7776 82.4336 49.0832 83.2439 48.4099 84.0862L49.9909 84.2103C50.3253 83.838 50.6663 83.4695 51.0127 83.1183C56.4319 77.5948 62.0543 75.9215 66.7202 77.7911C69.6235 78.8703 72.1255 81.3031 73.9867 84.2936C74.1114 84.9081 74.2432 85.5197 74.3788 86.1249L75.8384 86.2395C74.3915 82.6363 73.1056 78.4951 72.0806 74.1412C72.1945 74.7211 72.3112 75.3079 72.4383 75.8922L72.4386 75.8888Z" fill="#99B0BE"/>
<path d="M46.9185 43.7052C47.8767 42.6893 48.8336 41.8186 49.7821 41.0992L46.4787 40.8398C46.1673 41.1768 45.8521 41.5203 45.5415 41.8912C46.0729 42.4227 46.5306 43.0296 46.9185 43.7052Z" fill="#99B0BE"/>
<path d="M29.4656 82.5967L29.978 82.6369C30.0098 82.4908 30.045 82.3449 30.0768 82.1988C29.8728 82.3348 29.6691 82.4674 29.4656 82.5967Z" fill="#99B0BE"/>
<path d="M31.3803 81.2764C31.2573 81.7634 31.1382 82.2438 31.0193 82.721L31.9261 82.7922C32.1387 81.9846 32.3625 81.1644 32.5967 80.3416C32.1946 80.6681 31.7871 80.9773 31.3834 81.2801L31.3803 81.2764Z" fill="#99B0BE"/>
<path d="M72.6237 52.1553C77.2882 57.3691 82.3649 58.2879 86.9433 54.1442C89.0876 52.3194 90.9683 49.7477 92.5812 46.9589L92.7759 44.4744L92.5739 44.4585C90.8301 47.4464 88.7481 50.249 86.3359 52.1169C81.6972 55.9484 76.5577 54.7545 71.8374 49.3437C70.1713 47.4968 68.5533 45.1199 67.0329 42.4534L66.2273 42.3902C68.1787 46.2627 70.3598 49.7142 72.617 52.1547L72.6237 52.1553Z" fill="#99B0BE"/>
<path d="M77.9584 75.5896C73.7728 71.6632 69.8252 63.0194 67.2454 53.9323L67.0919 53.2953C67.0771 53.2671 67.0587 53.242 67.0406 53.2136C66.9428 52.8613 66.8481 52.5127 66.7536 52.1607C66.8243 52.4703 66.8978 52.7869 66.9715 53.1001C64.9917 49.8063 62.378 47.5438 59.383 47.0283C56.0435 46.3642 52.2791 47.9165 48.4866 51.7266C48.4304 52.8741 48.2858 54.0688 48.0534 55.3005C52.2871 50.7953 56.5123 49.0765 60.1872 50.0474C63.3875 50.7986 66.1217 53.557 68.0675 57.3716L67.9676 56.9584C68.2722 58.0465 68.5875 59.1286 68.9279 60.1924C68.9707 60.3816 69.0104 60.5671 69.0532 60.7563C69.2057 61.4067 69.3646 62.061 69.531 62.7058C72.0545 72.7276 76.1208 82.0192 80.4382 85.6485C80.9268 86.0787 81.4214 86.4317 81.9215 86.7142L86.9238 87.1069C87.8062 86.7539 88.6889 86.1813 89.5631 85.3716L89.8535 81.6717C86.4852 85.1773 82.9772 85.3208 79.6925 82.3165C75.605 78.7391 71.7487 70.2713 69.2095 61.0557C71.734 68.7736 75.1388 75.6047 78.7203 78.8451C82.434 82.3459 86.4293 82.0008 90.1858 77.4819L90.4774 73.7684C86.4128 79.101 82.0157 79.553 77.9618 75.5897L77.9584 75.5896Z" fill="#99B0BE"/>
<path d="M34.1827 78.9771C33.7674 80.2924 33.3734 81.5958 33.0085 82.8745L33.9759 82.9505C34.5469 81.1204 35.1716 79.254 35.8508 77.3852C35.2985 77.9398 34.7447 78.4706 34.1827 78.9771Z" fill="#99B0BE"/>
<path d="M57.153 84.7696L60.7568 85.0531C63.5096 84.3774 66.1585 84.5921 68.5502 85.6649L71.243 85.8757C70.2568 85.0889 69.1988 84.4383 68.0778 83.9855C64.7847 82.5581 61.0085 82.792 57.153 84.7696Z" fill="#99B0BE"/>
<path d="M67.2197 79.8878C62.6951 78.0326 57.2771 79.4349 52.0129 84.3659L54.2338 84.5404C59.0555 80.9699 63.8945 80.2517 67.9585 82.1416C69.8378 82.958 71.5276 84.3304 72.9794 86.0119L74.3143 86.1166C72.4713 83.2829 70.0353 80.9601 67.2197 79.8878Z" fill="#99B0BE"/>
<path d="M84.2406 45.5204C85.0469 45.1006 85.8141 44.5731 86.5487 43.9855L83.5857 43.7529C80.6608 45.1516 77.5514 44.8399 74.4777 43.0379L71.7297 42.8222C75.883 46.6851 80.2413 47.7637 84.2431 45.5206L84.2406 45.5204Z" fill="#99B0BE"/>
<path d="M74.819 61.9756C70.8312 57.8621 67.0619 50.1444 64.4393 42.2498L63.5398 42.1792C63.9534 42.6576 64.3469 43.1749 64.7235 43.7349C67.3582 52.2959 71.3591 60.7784 75.5949 65.0161C80.1108 69.7048 85.0235 69.5972 89.4566 64.02C90.1526 63.1895 90.8187 62.2655 91.4558 61.2784L91.726 57.837C90.8292 59.2801 89.8735 60.6103 88.8514 61.7496C84.3639 67.0253 79.3877 66.861 74.8198 61.9723L74.819 61.9756Z" fill="#99B0BE"/>
<path d="M60.9226 55.0742C64.4318 55.8226 67.3995 58.8899 69.4088 63.0609L68.8009 60.4795C66.7699 56.3677 63.8112 53.4024 60.333 52.7341C56.232 51.8345 51.4855 54.1881 46.8219 59.8925C45.5962 63.4954 43.7204 67.2567 41.2098 70.8971C40.2953 72.2205 39.3358 73.4694 38.3447 74.6449C37.1429 77.4254 36.0688 80.2632 35.125 83.0403L36.1295 83.1191C38.3797 76.9212 41.3127 70.4931 44.835 65.2429C50.3038 57.2302 56.0694 53.9061 60.9159 55.0737L60.9226 55.0742Z" fill="#99B0BE"/>
<path d="M85.6275 49.8216C87.5992 48.4664 89.3444 46.4988 90.875 44.3252L89.0162 44.1792C87.7837 45.579 86.4352 46.8143 84.9575 47.7083C80.2503 50.771 75.0368 49.0375 70.2515 43.375C70.0523 43.1465 69.8543 42.9046 69.6528 42.6625L68.2033 42.5487C69.1354 43.9393 70.0907 45.2068 71.063 46.3C75.8032 51.8035 80.9667 53.2528 85.6246 49.8248L85.6275 49.8216Z" fill="#99B0BE"/>
<path d="M76.4032 68.5624C72.2367 64.4788 68.302 56.1029 65.6858 47.4791L65.6293 47.2483C65.6293 47.2483 65.6112 47.2199 65.6021 47.2057C65.4025 46.5515 65.2133 45.8948 65.0307 45.2386C65.16 45.796 65.2951 46.364 65.4399 46.9396C65.4425 46.9499 65.445 46.9602 65.4476 46.9706C63.727 44.3492 61.5922 42.5094 59.1827 41.8372L55.9973 41.5871C53.4366 41.8894 50.6966 43.3972 47.9308 46.1393C48.1464 46.8927 48.3041 47.6921 48.4005 48.5375C52.0402 44.989 55.6299 43.5446 58.8341 44.161C61.7534 44.6469 64.313 46.8207 66.2767 50.0186C68.8809 59.0974 72.9234 67.9142 77.2054 71.9968C81.6326 76.388 86.4557 75.7363 90.8162 69.4439L91.1309 65.4351C90.8165 65.8969 90.4998 66.3449 90.1749 66.7687C85.7682 72.7433 80.8881 73.127 76.4066 68.5627L76.4032 68.5624Z" fill="#99B0BE"/>
<path d="M73.0146 54.9526C70.2891 51.9112 67.6906 47.3392 65.4958 42.3328L64.7947 42.2777C67.3263 48.8679 70.6028 55.0437 74.0475 58.645C78.6389 63.6234 83.636 64.0393 88.1421 59.1738C89.5544 57.7307 90.8481 55.9405 92.0266 53.9758L92.2957 50.5478C90.9228 52.8723 89.373 54.9869 87.6553 56.6054C82.9722 61.305 77.7589 60.4464 73.0146 54.9526Z" fill="#99B0BE"/>
<path d="M70.8009 68.4168C70.9489 69.0804 71.1039 69.7411 71.266 70.3991C72.7163 76.3774 74.673 81.9969 76.8808 86.3186L78.455 86.4422C75.2503 81.9003 72.3553 74.4945 70.4024 66.5376C70.53 67.1591 70.6606 67.7842 70.8009 68.4168Z" fill="#99B0BE"/>
<path d="M63.0142 64.8865C66.6313 65.8596 69.6448 69.1635 71.603 73.3812L71.1032 71.1934C69.1246 66.9336 66.082 63.6544 62.4493 62.751C57.6989 61.439 52.0341 64.2576 46.6324 71.4141C43.9795 74.9657 41.6665 79.1555 39.712 83.4004L40.844 83.4892C42.6701 79.7984 44.7842 76.1977 47.1672 73.1046C52.5917 66.1323 58.2713 63.4702 63.0203 64.8869L63.0142 64.8865Z" fill="#99B0BE"/>
<path d="M62.0435 60.1791C65.6594 61.0372 68.6909 64.2851 70.6885 68.5633L70.0785 65.921C68.0657 61.6653 65.045 58.4959 61.4578 57.7042C56.6471 56.5124 50.9209 59.6809 45.482 67.3986C42.2509 72.05 39.5129 77.6793 37.3418 83.2146L38.5283 83.3077C40.6057 78.4036 43.1409 73.5016 46.0883 69.3954C51.5295 61.9075 57.2495 58.9041 62.0472 60.176L62.0435 60.1791Z" fill="#99B0BE"/>
<path d="M64.5554 69.1462C67.8166 70.159 70.5883 73.0014 72.5294 76.6164L72.0608 74.5493C70.0975 70.8718 67.2927 68.02 63.9927 67.0684C59.2537 65.5681 53.5889 68.0421 48.1658 74.7375C46.0344 77.3909 44.1121 80.4493 42.4152 83.6165L43.6456 83.7131C45.1672 81.0929 46.8531 78.5835 48.6924 76.3666C54.1348 69.8585 59.8145 67.541 64.552 69.146L64.5554 69.1462Z" fill="#99B0BE"/>
<path d="M71.0387 63.6512C66.5462 59.9943 61.9246 51.7012 58.6868 43.0354C56.525 40.0677 53.8633 38.142 50.9732 37.8881C47.7983 37.5286 44.405 39.2169 41.1242 42.9596C40.9652 42.1418 40.7501 41.3735 40.4819 40.6546C42.9715 37.766 45.5306 36.081 48.0069 35.593H41.9021C41.0315 36.3679 40.1641 37.2879 39.3066 38.3563C38.8763 37.7265 38.383 37.1692 37.8235 36.6911C38.1016 36.3086 38.3797 35.9458 38.6578 35.593H0L0 77.6555H25.2532C25.4419 77.5137 25.6306 77.3686 25.8193 77.2203C25.7994 77.3653 25.7763 77.5104 25.7564 77.6555H26.7827C26.8588 77.1807 26.9416 76.7026 27.0244 76.2178C27.3984 75.8914 27.7692 75.5583 28.1367 75.2088C27.9745 76.0332 27.8156 76.8509 27.6699 77.6522H28.7326C28.9908 76.3728 29.2722 75.0736 29.5801 73.7579C30.09 73.2204 30.5932 72.6599 31.0864 72.0762C30.5667 73.9558 30.0999 75.8254 29.6828 77.6522H30.8216C31.5301 74.8725 32.361 72.0202 33.3211 69.2107C34.1984 67.9873 35.0393 66.698 35.8305 65.3329C38.0023 61.587 39.545 57.7718 40.4654 54.1611C44.5804 48.2355 49.0332 45.5745 53.1052 46.1383C56.5515 46.5241 59.6635 49.1918 61.9643 53.0498L62.7556 55.5229C60.4713 51.6022 57.3427 48.839 53.86 48.3773C49.0431 47.609 43.67 51.2989 38.9425 59.5359C35.9067 64.9306 33.5363 71.4299 31.8148 77.6522H32.9967C34.695 72.0828 36.9363 66.3815 39.7304 61.5903C44.448 53.6401 49.7913 50.1052 54.5817 50.9032C58.1439 51.4011 61.3353 54.2633 63.6262 58.2631L64.4241 60.7956C62.1464 56.7694 58.9384 53.8346 55.3431 53.274C50.5627 52.4002 45.2127 55.7702 40.472 63.4962C37.9129 67.7301 35.8107 72.7093 34.1587 77.6555H35.3174C36.8998 73.3589 38.8398 69.0953 41.154 65.4252C45.8782 58.029 51.1917 54.8436 55.9291 55.757C59.5476 56.3605 62.7655 59.3282 65.0233 63.3346L65.6788 65.4318C63.4442 61.465 60.2494 58.4742 56.6442 57.7982C51.9001 56.7826 46.5635 59.8162 41.7995 67.0344C39.7105 70.2362 37.9228 73.9096 36.4231 77.6555H37.9725C39.3861 74.4339 41.0248 71.3013 42.9053 68.5479C47.6858 61.6002 53.0224 58.7478 57.7665 59.8492C61.0605 60.5252 64.0169 63.0939 66.2151 66.5332L66.8309 68.5149C64.6625 65.135 61.7392 62.5696 58.475 61.8343C53.7276 60.6307 48.3611 63.328 43.5475 70.0977C41.9187 72.3994 40.4654 74.9813 39.1842 77.6555H40.6673C41.7631 75.6078 42.9682 73.6392 44.2891 71.852C49.0961 65.3659 54.4327 62.8235 59.1536 64.0568C62.4046 64.8185 65.3113 67.3575 67.4765 70.6682C67.3838 70.2725 67.2911 69.8735 67.2017 69.4811C67.0262 68.9304 66.8541 68.3732 66.6885 67.8159C66.5197 67.252 66.3608 66.6914 66.2052 66.1342C67.536 70.3088 69.1119 74.2492 70.8003 77.6555H71.8266C69.3403 73.6029 66.9997 68.2709 65.1259 62.5465C64.9174 61.9167 64.7154 61.2836 64.5201 60.6472C64.3347 60.0405 64.1559 59.4403 63.9871 58.8435C66.5065 66.4606 69.8965 73.471 73.3726 77.6555H76.7759C76.2694 77.4181 75.7596 77.1114 75.2464 76.7289C70.7539 73.5172 66.0695 64.7591 62.8416 55.1701C62.6298 54.5502 62.4245 53.9269 62.2259 53.3037C62.1696 53.1224 62.1166 52.9443 62.0603 52.7629C61.6465 51.7506 61.2559 50.7185 60.8751 49.6798L61.0043 50.0755C58.816 46.501 55.9357 44.018 52.751 43.53C49.0894 42.8639 45.0936 44.8655 41.3096 49.5875C41.442 48.3641 41.4916 47.1869 41.4585 46.0658C44.8684 42.0561 48.424 40.2523 51.7346 40.6447C54.6976 40.9184 57.4222 42.9299 59.6072 45.9899C59.5112 45.6899 59.4152 45.3865 59.3225 45.0897C59.4417 45.4261 59.5608 45.7624 59.6833 46.0955C59.6999 46.1218 59.7198 46.1449 59.7396 46.1713L59.9382 46.7813C63.1495 55.4537 67.6685 63.5885 72.055 67.1003C76.3157 70.6583 80.5732 69.8768 84.1321 64.3634V60.1196C80.358 66.5958 75.7 67.6015 71.042 63.6545L71.0387 63.6512ZM10.1966 72.3598C8.54132 72.3598 7.20054 71.0342 7.20054 69.3954C7.20054 67.7565 8.54132 66.4309 10.1966 66.4309C11.8519 66.4309 13.1927 67.7598 13.1927 69.3954C13.1927 71.0309 11.8519 72.3598 10.1966 72.3598ZM18.2943 56.6737H8.02156V50.0821H6.20736V47.7277H8.02156V46.2274C8.02156 45.3271 8.21027 44.4632 8.58105 43.6388C8.95184 42.8145 9.54443 42.1286 10.3555 41.5878C11.1666 41.047 12.2293 40.7766 13.5337 40.7766C14.6593 40.7766 15.5995 40.9712 16.351 41.3669C17.1025 41.7626 17.7282 42.2275 18.2248 42.765L16.0398 45.1194C15.7419 44.8061 15.4207 44.5522 15.0864 44.3478C14.752 44.1434 14.3315 44.0411 13.8316 44.0411C13.0702 44.0411 12.5372 44.3049 12.2326 44.8391C11.9247 45.3733 11.7725 45.9636 11.7725 46.6165V47.7211H16.1888V50.0755H11.7725V53.4125H18.3043V56.677L18.2943 56.6737Z" fill="#E8E8C9"/>
<path d="M55.9861 77.6561H63.6402C61.2268 76.7921 58.6213 76.7855 55.9861 77.6561Z" fill="#E8E8C9"/>
<path d="M61.2499 70.1081C56.5489 68.6407 51.1924 70.7049 46.3258 76.5118C46.0146 76.8811 45.71 77.2669 45.4121 77.656H47.3951C52.1558 72.4394 57.3368 70.6555 61.8955 72.1195C64.7261 72.9505 67.2818 75.0312 69.298 77.656H69.3609C69.1821 77.0756 69.0067 76.4887 68.8378 75.8984C66.7919 73.122 64.1666 70.9358 61.2466 70.1081H61.2499Z" fill="#E8E8C9"/>
<path d="M73.0415 70.2168C69.2972 67.3282 65.4503 60.9212 62.3946 53.581C65.5827 62.382 69.9957 70.352 74.2565 73.5307C77.6929 76.2116 81.1094 75.8027 84.1253 72.1227V68.0042C80.8048 72.7031 76.9314 73.3461 73.0382 70.2135L73.0415 70.2168Z" fill="#E8E8C9"/>
<path d="M66.9375 50.8603C63.2992 47.609 59.6311 41.8318 56.6515 35.593H56.3006C59.4655 43.0981 63.7362 50.3426 67.9439 54.0522C72.7774 58.4742 77.6473 58.2532 81.6233 52.7596C82.5337 51.5693 83.3647 50.1975 84.1294 48.7202V44.9249C83.1296 46.9363 82.004 48.7796 80.7361 50.2964C76.7104 55.391 71.8041 55.3679 66.9375 50.8603Z" fill="#E8E8C9"/>
<path d="M49.5797 77.6555H52.4466C56.0585 75.4297 59.7266 74.912 63.0505 76.0529C64.1794 76.4091 65.2619 76.963 66.2849 77.6555H67.9932C66.4471 76.1255 64.6892 74.912 62.7955 74.2624C58.6871 72.7291 54.0192 73.8008 49.583 77.6555H49.5797Z" fill="#E8E8C9"/>
<path d="M75.1048 35.593H66.1596C69.2981 37.1164 72.357 37.1824 75.1048 35.593Z" fill="#E8E8C9"/>
<path d="M68.9323 56.9606C64.4729 53.1454 59.9175 45.1755 56.6897 37.0208C56.2825 36.5031 55.8554 36.0283 55.4151 35.593H51.1345C53.538 36.0646 55.7661 37.6968 57.6432 40.1237C57.6432 40.1138 57.6365 40.104 57.6332 40.0941C57.4478 39.5434 57.2724 38.9993 57.1035 38.4651C57.332 39.0916 57.5703 39.7182 57.812 40.3414C57.8219 40.3546 57.8319 40.3678 57.8418 40.3809L57.9146 40.6019C61.1292 48.8192 65.6118 56.6935 69.9917 60.3603C74.7159 64.4722 79.45 63.7237 83.2936 57.5542C83.5783 57.1156 83.8564 56.6539 84.1246 56.1791V52.0968C83.5783 53.1092 82.999 54.0588 82.3832 54.9261C78.4833 60.7065 73.6962 61.1913 68.929 56.9606H68.9323Z" fill="#E8E8C9"/>
<path d="M79.1752 45.4788C75.0205 49.8744 69.9983 49.3698 65.0456 44.6347C62.6554 42.4254 60.2618 39.2235 58.0603 35.593H57.3419C59.8679 40.3117 62.7547 44.5753 65.6482 47.3353C70.7001 52.3343 75.8547 52.7728 80.0658 47.8266C81.6185 46.1152 82.9659 43.929 84.1312 41.5581V38.0331C82.7705 40.8789 81.1318 43.5333 79.1786 45.4788H79.1752Z" fill="#E8E8C9"/>
<path d="M76.747 39.3488C78.1209 38.3629 79.3425 37.0571 80.4383 35.593H78.015C77.3429 36.2261 76.6378 36.7999 75.8796 37.2681C72.1453 39.7643 67.8084 39.0455 63.4583 35.593H61.419C61.6308 35.8172 61.8427 36.0349 62.0579 36.2426C67.1628 41.4065 72.3836 42.6958 76.7437 39.3455L76.747 39.3488Z" fill="#E8E8C9"/>
<path d="M60.5716 68.3004C63.5842 69.0951 66.2956 71.3571 68.3846 74.2655C68.2157 73.639 68.0502 73.0158 67.8946 72.3958C65.7725 69.3094 62.9784 66.9253 59.8664 66.1438C55.1521 64.8314 49.8088 67.2122 44.982 73.4708C43.9756 74.7766 43.042 76.1879 42.1647 77.6553H43.8597C44.4523 76.7848 45.0681 75.9406 45.7136 75.1393C50.5438 69.1478 55.8738 66.9286 60.5716 68.2971V68.3004Z" fill="#E8E8C9"/>
<path d="M81.6879 77.6555H84.1311V75.7595C83.3366 76.6135 82.5189 77.24 81.6879 77.6555Z" fill="#E8E8C9"/>
<path d="M64.0656 41.9505C69.0845 46.8704 74.196 47.642 78.4303 43.5465C80.6418 41.5384 82.4593 38.6432 83.9325 35.593H82.264C80.9364 37.8353 79.3837 39.8896 77.5629 41.3603C73.279 45.0633 68.1277 44.0444 63.0791 39.0356C62.0462 38.043 61.0133 36.879 60.0002 35.593H58.8515C60.5365 38.0793 62.3011 40.2754 64.0689 41.9505H64.0656Z" fill="#E8E8C9"/>
<path d="M11.7662 50.0723H16.1825V47.7179H11.7662V46.6132C11.7662 45.957 11.9184 45.3668 12.2263 44.8359C12.5342 44.3017 13.0672 44.0379 13.8253 44.0379C14.3252 44.0379 14.7457 44.1401 15.0801 44.3446C15.4144 44.549 15.7356 44.8029 16.0335 45.1162L18.2185 42.7618C17.7252 42.2243 17.0962 41.7594 16.3447 41.3637C15.5932 40.968 14.6563 40.7734 13.5274 40.7734C12.223 40.7734 11.1603 41.0438 10.3492 41.5846C9.53813 42.1254 8.94553 42.8112 8.57475 43.6356C8.20396 44.46 8.01526 45.3272 8.01526 46.2241V47.7245H6.20105V50.0789H8.01526V56.6705H18.2913V53.406H11.7595V50.069L11.7662 50.0723Z" fill="#001276"/>
<path d="M10.1954 66.4311C8.54009 66.4311 7.1993 67.76 7.1993 69.3955C7.1993 71.0311 8.54009 72.36 10.1954 72.36C11.8507 72.36 13.1915 71.0344 13.1915 69.3955C13.1915 67.7567 11.8507 66.4311 10.1954 66.4311Z" fill="#001276"/>
<path d="M66.6866 67.8155C66.8521 68.3761 67.0276 68.9301 67.1997 69.4807C67.2858 69.8731 67.3785 70.2688 67.4745 70.6678C65.3094 67.3572 62.3994 64.8181 59.1517 64.0564C54.4308 62.8231 49.0941 65.3655 44.2871 71.8516C42.9662 73.6388 41.7645 75.6074 40.6653 77.6552L42.1647 77.6553C43.042 76.1879 43.9756 74.7766 44.982 73.4708C49.8088 67.2122 55.1521 64.8314 59.8664 66.1438C62.9784 66.9253 65.7725 69.3094 67.8946 72.3958C68.0502 73.0158 68.2124 73.639 68.3846 74.2655C66.2956 71.3571 63.5842 69.0951 60.5716 68.3004C55.8772 66.9319 50.5475 69.151 45.714 75.1425C45.0684 75.9405 44.4527 76.7846 43.8601 77.6585H45.4127C45.7107 77.2694 46.0153 76.8836 46.3265 76.5142C51.193 70.7074 56.5529 68.6432 61.2506 70.1106C64.1672 70.9415 66.7958 73.1244 68.8418 75.9009C69.0106 76.4912 69.1861 77.0781 69.3649 77.6585H70.7983C69.1099 74.2522 67.5374 70.3084 66.2032 66.1371C66.3588 66.6944 66.5177 67.2582 66.6866 67.8188V67.8155Z" fill="#99B0BE"/>
<path d="M39.3099 38.3563C40.1673 37.2912 41.0347 36.3679 41.9054 35.593H38.661C38.3829 35.9458 38.1015 36.3053 37.8267 36.6911C38.3862 37.1692 38.8795 37.7265 39.3099 38.3563Z" fill="#99B0BE"/>
<path d="M25.2541 77.6562H25.7573C25.7772 77.5111 25.8004 77.366 25.8202 77.2209C25.6315 77.3693 25.4428 77.5144 25.2541 77.6562Z" fill="#99B0BE"/>
<path d="M27.0219 76.2207C26.9392 76.7055 26.8597 77.1836 26.7802 77.6584H27.6708C27.8165 76.8539 27.9721 76.0361 28.1376 75.215C27.7701 75.5646 27.396 75.8976 27.0252 76.224L27.0219 76.2207Z" fill="#99B0BE"/>
<path d="M65.0486 44.6347C70.0012 49.3665 75.0271 49.8744 79.1786 45.4788C81.1318 43.5333 82.7705 40.8789 84.1312 38.0331L84.1308 35.593H83.9325C82.4593 38.6432 80.6418 41.5384 78.4303 43.5465C74.196 47.642 69.0878 46.8704 64.0656 41.9505C62.2978 40.2754 60.5363 38.0793 58.8479 35.593H58.0566C60.2582 39.2235 62.6517 42.4254 65.042 44.6347H65.0486Z" fill="#99B0BE"/>
<path d="M72.0517 67.1005C67.6651 63.5886 63.1495 55.4538 59.9349 46.7814L59.7363 46.1714C59.7197 46.145 59.6998 46.122 59.68 46.0956C59.5575 45.7592 59.4383 45.4262 59.3191 45.0898C59.4118 45.3866 59.5078 45.69 59.6038 45.9901C57.4188 42.9267 54.6942 40.9185 51.7312 40.6449C48.4207 40.2525 44.8651 42.0562 41.4552 46.0659C41.4883 47.1903 41.4386 48.3675 41.3062 49.5876C45.0935 44.8656 49.0861 42.8641 52.7476 43.5301C55.9291 44.0182 58.8093 46.5012 61.0009 50.0756L60.8718 49.6799C61.2525 50.7186 61.6432 51.7507 62.057 52.7631C62.1133 52.9444 62.1662 53.1225 62.2225 53.3038C62.4211 53.9271 62.6264 54.5536 62.8383 55.1702C66.0694 64.7592 70.7506 73.5173 75.2431 76.7291C75.7529 77.1116 76.2627 77.4182 76.7726 77.6556H81.6855C82.5197 77.2435 83.3375 76.6169 84.1287 75.7596V72.1258C81.1094 75.8058 77.6962 76.2147 74.2598 73.5338C69.9958 70.3551 65.5828 62.3851 62.398 53.5841C65.4536 60.9243 69.3006 67.3313 73.0448 70.2199C76.9381 73.3525 80.8115 72.7094 84.132 68.0106L84.1321 64.3634C80.5732 69.8801 76.3157 70.6583 72.055 67.1003L72.0517 67.1005Z" fill="#99B0BE"/>
<path d="M29.5811 73.7616C29.2765 75.0773 28.9918 76.3798 28.7336 77.6559H29.6838C30.1009 75.8258 30.5677 73.9561 31.0874 72.0799C30.5909 72.6635 30.091 73.2241 29.5811 73.7616Z" fill="#99B0BE"/>
<path d="M52.4466 77.6555L55.9861 77.6561C58.6213 76.7855 61.2235 76.7921 63.6402 77.6561L66.2849 77.6555C65.2619 76.963 64.1794 76.4091 63.0505 76.0529C59.7266 74.912 56.0585 75.4297 52.4466 77.6555Z" fill="#99B0BE"/>
<path d="M61.8988 72.1189C57.3401 70.6548 52.159 72.4387 47.3984 77.6553L49.5797 77.6555C54.0125 73.8008 58.6809 72.7289 62.7926 74.2622C64.6896 74.9151 66.4442 76.1253 67.9903 77.6553H69.3013C67.2851 75.0305 64.7293 72.9498 61.8988 72.1189Z" fill="#99B0BE"/>
<path d="M75.8796 37.2681C76.6344 36.7966 77.3429 36.2228 78.015 35.593H75.1048C72.357 37.1824 69.2981 37.1164 66.1596 35.593H63.4607C67.8108 39.0455 72.1477 39.7643 75.8821 37.2681L75.8796 37.2681Z" fill="#99B0BE"/>
<path d="M67.9439 54.0522C63.7362 50.3426 59.4655 43.0981 56.3006 35.593H55.4172C55.8575 36.0283 56.2813 36.5031 56.6918 37.0208C59.9196 45.1755 64.475 53.1487 68.9344 56.9606C73.7016 61.1913 78.4887 60.7098 82.3886 54.9261C83.0044 54.0621 83.5837 53.1092 84.13 52.0968V48.7169C83.3652 50.1942 82.5343 51.566 81.6239 52.7563C77.6479 58.2499 72.778 58.4709 67.9445 54.0489L67.9439 54.0522Z" fill="#99B0BE"/>
<path d="M53.8507 48.3806C57.3334 48.8422 60.4652 51.6088 62.7462 55.5262L61.955 53.0531C59.6574 49.195 56.5422 46.5274 53.0959 46.1416C49.0238 45.5777 44.5711 48.2388 40.456 54.1643C39.5357 57.775 37.9929 61.5902 35.8212 65.3361C35.03 66.698 34.1891 67.9906 33.3118 69.214C32.3517 72.0201 31.5207 74.8724 30.8123 77.6555H31.7988C33.5203 71.4332 35.8907 64.9339 38.9265 59.5392C43.6507 51.2988 49.0238 47.6123 53.844 48.3806H53.8507Z" fill="#99B0BE"/>
<path d="M77.5629 41.3603C79.3837 39.8863 80.9364 37.832 82.264 35.593H80.4383C79.3425 37.0538 78.1209 38.3629 76.747 39.3488C72.387 42.6991 67.1651 41.4065 62.0602 36.2459C61.8483 36.0382 61.6364 35.8172 61.4212 35.5963H59.9977C61.014 36.8823 62.0436 38.0463 63.0765 39.0389C68.1252 44.0477 73.2765 45.0666 77.5604 41.3636L77.5629 41.3603Z" fill="#99B0BE"/>
<path d="M69.9951 60.3603C65.6152 56.6935 61.1327 48.8192 57.9181 40.6019L57.8452 40.3809C57.8452 40.3809 57.8254 40.3546 57.8154 40.3414C57.5705 39.7182 57.3354 39.0916 57.107 38.4651C57.2758 38.9993 57.4513 39.5434 57.6367 40.0941C57.64 40.104 57.6433 40.1138 57.6466 40.1237C55.7662 37.6968 53.5415 36.0646 51.138 35.593H48.0095C45.5332 36.0843 42.9741 37.766 40.4845 40.6546C40.7527 41.3735 40.9679 42.1418 41.1268 42.9596C44.4076 39.2169 47.8009 37.5319 50.9758 37.8881C53.8626 38.1387 56.5276 40.0644 58.6894 43.0354C61.9272 51.6979 66.5488 59.9943 71.0413 63.6512C75.6993 67.5982 80.3573 66.5925 84.1313 60.1163V56.1791C83.8599 56.6539 83.5851 57.1156 83.3004 57.5542C79.4568 63.7237 74.7226 64.4722 69.9984 60.3603H69.9951Z" fill="#99B0BE"/>
<path d="M65.6445 47.3353C62.7511 44.5753 59.8642 40.3117 57.3382 35.593H56.6496C59.6259 41.8318 63.2973 47.609 66.9356 50.8603C71.7989 55.3679 76.7085 55.391 80.7342 50.2964C82.0021 48.7796 83.1277 46.933 84.1275 44.9249V41.5581C82.9655 43.9323 81.6148 46.1152 80.0621 47.8266C75.8511 52.7728 70.6965 52.3343 65.6445 47.3353Z" fill="#99B0BE"/>
<path d="M64.5155 60.6474C64.7108 61.2839 64.9127 61.917 65.1213 62.5468C66.9951 68.2712 69.3357 73.6065 71.8219 77.6558H73.368C69.8919 73.468 66.4985 66.4609 63.9824 58.8437C64.1546 59.4406 64.3301 60.0407 64.5155 60.6474Z" fill="#99B0BE"/>
<path d="M56.6442 57.7982C60.2494 58.4709 63.4442 61.465 65.6788 65.4318L65.0233 63.3346C62.7655 59.3282 59.5443 56.3605 55.9291 55.757C51.1917 54.8403 45.8782 58.0257 41.154 65.4252C38.8365 69.0953 36.8998 73.3622 35.3174 77.6555L36.4291 77.6555C37.9288 73.9129 39.7165 70.2362 41.8055 67.0344C46.5661 59.8129 51.9061 56.7792 56.6502 57.7981L56.6442 57.7982Z" fill="#99B0BE"/>
<path d="M55.336 53.2776C58.9313 53.8382 62.1393 56.7762 64.417 60.7991L63.6191 58.2667C61.3282 54.2668 58.1368 51.4046 54.5746 50.9067C49.7875 50.112 44.4408 53.6436 39.7233 61.5938C36.9258 66.3817 34.6845 72.0864 32.9895 77.6558H34.1548C35.8068 72.7096 37.9057 67.7304 40.4681 63.4964C45.2056 55.7705 50.5588 52.4005 55.3393 53.2743L55.336 53.2776Z" fill="#99B0BE"/>
<path d="M58.475 61.8381C61.736 62.5767 64.6592 65.1388 66.831 68.5187L66.2152 66.537C64.017 63.0977 61.0606 60.529 57.7666 59.853C53.0258 58.7516 47.6858 61.6007 42.9053 68.5517C41.0282 71.3051 39.3862 74.4377 37.9725 77.6593H39.1809C40.4654 74.9851 41.9188 72.4065 43.5443 70.1015C48.3579 63.3318 53.7243 60.6345 58.4717 61.8381H58.475Z" fill="#99B0BE"/>
<path d="M80.6834 17.0292C80.6834 8.72227 73.9518 1.98901 65.6469 1.98901C61.3398 1.98901 57.457 3.80176 54.7168 6.7037C54.6593 6.76379 54.6018 6.82387 54.5455 6.88523C52.1019 9.55962 50.6104 13.1199 50.6104 17.0279C50.6104 25.3349 57.342 32.0682 65.6469 32.0682C69.5552 32.0682 73.1134 30.5763 75.7884 28.132C75.8497 28.0758 75.9098 28.0182 75.9711 27.9607C78.8723 25.2186 80.6847 21.3361 80.6847 17.0279L80.6834 17.0292Z" fill="#FFCB05"/>
<path d="M61.549 23.7146V18.0178H60.0037V15.9851H61.549V14.6926C61.549 13.9166 61.7074 13.1713 62.0257 12.4579C62.3427 11.7445 62.8475 11.1552 63.539 10.6898C64.2305 10.2245 65.1341 9.9905 66.2486 9.9905C67.2085 9.9905 68.0099 10.1605 68.6515 10.4993C69.2931 10.8381 69.8261 11.2408 70.2505 11.7062L68.3869 13.7389C68.1326 13.4704 67.8604 13.248 67.5715 13.0715C67.2826 12.8951 66.926 12.8069 66.5017 12.8069C65.8524 12.8069 65.3974 13.037 65.1354 13.4947C64.8734 13.9537 64.7443 14.4651 64.7443 15.0301V15.9826H68.5135V18.0153H64.7443V20.8956H70.3131V23.712H61.5477L61.549 23.7146Z" fill="#E1B500"/>
<path d="M57.7342 45.2736C57.7342 36.9667 51.0026 30.2334 42.6976 30.2334C38.3905 30.2334 34.5078 32.0461 31.7676 34.9481C31.7101 35.0082 31.6526 35.0683 31.5963 35.1296C29.1526 37.804 27.6611 41.3643 27.6611 45.2723C27.6611 53.5793 34.3927 60.3125 42.6976 60.3125C46.606 60.3125 50.1641 58.8207 52.8391 56.3764C52.9005 56.3201 52.9606 56.2626 53.0219 56.2051C55.9231 53.463 57.7354 49.5805 57.7354 45.2723L57.7342 45.2736Z" fill="#FFCB05"/>
<path d="M38.5997 51.959V46.2622H37.0545V44.2295H38.5997V42.937C38.5997 42.161 38.7582 41.4157 39.0765 40.7023C39.3935 39.9889 39.8983 39.3995 40.5898 38.9342C41.2813 38.4688 42.1849 38.2349 43.2994 38.2349C44.2593 38.2349 45.0607 38.4049 45.7023 38.7437C46.3439 39.0825 46.8769 39.4852 47.3012 39.9506L45.4377 41.9833C45.1834 41.7148 44.9111 41.4924 44.6223 41.3159C44.3334 41.1395 43.9768 41.0513 43.5525 41.0513C42.9032 41.0513 42.4482 41.2814 42.1862 41.7391C41.9242 42.1981 41.7951 42.7094 41.7951 43.2745V44.227H45.5643V46.2597H41.7951V49.14H47.3639V51.9564H38.5985L38.5997 51.959Z" fill="#E1B500"/>
<path d="M76.9842 67.5871C76.9842 59.2801 70.2526 52.5469 61.9476 52.5469C57.6405 52.5469 53.7578 54.3596 51.0176 57.2616C50.9601 57.3216 50.9026 57.3817 50.8463 57.4431C48.4026 60.1175 46.9111 63.6778 46.9111 67.5858C46.9111 75.8928 53.6427 82.626 61.9476 82.626C65.856 82.626 69.4141 81.1341 72.0891 78.6899C72.1505 78.6336 72.2106 78.5761 72.2719 78.5186C75.1731 75.7764 76.9854 71.894 76.9854 67.5858L76.9842 67.5871Z" fill="#FFCB05"/>
<path d="M57.8497 74.2724V68.5757H56.3045V66.543H57.8497V65.2505C57.8497 64.4745 58.0082 63.7291 58.3265 63.0158C58.6435 62.3024 59.1483 61.713 59.8398 61.2477C60.5313 60.7823 61.4349 60.5484 62.5494 60.5484C63.5093 60.5484 64.3107 60.7184 64.9523 61.0572C65.5939 61.396 66.1269 61.7987 66.5512 62.264L64.6877 64.2968C64.4334 64.0283 64.1611 63.8058 63.8723 63.6294C63.5834 63.453 63.2268 63.3648 62.8025 63.3648C62.1532 63.3648 61.6982 63.5949 61.4362 64.0526C61.1742 64.5115 61.0451 65.0229 61.0451 65.588V66.5404H64.8143V68.5732H61.0451V71.4535H66.6139V74.2699H57.8485L57.8497 74.2724Z" fill="#E1B500"/>
</svg>
