<svg width="96" height="96" viewBox="0 0 96 96" fill="none" xmlns="http://www.w3.org/2000/svg">
<path d="M64.0446 16.0033C64.0446 7.1644 56.8819 0 48.0452 0C43.4623 0 39.3309 1.92882 36.4153 5.01658C36.3541 5.08051 36.2929 5.14444 36.2331 5.20973C33.6329 8.05536 32.0459 11.8436 32.0459 16.0019C32.0459 24.8408 39.2085 32.0052 48.0452 32.0052C52.2038 32.0052 55.9898 30.4178 58.8361 27.817C58.9014 27.7571 58.9653 27.6959 59.0306 27.6347C62.1176 24.717 64.0459 20.5859 64.0459 16.0019L64.0446 16.0033Z" fill="#FFCD00"/>
<path d="M43.6849 23.1167V17.0552H42.0407V14.8923H43.6849V13.517C43.6849 12.6913 43.8536 11.8983 44.1922 11.1392C44.5295 10.3802 45.0667 9.75307 45.8024 9.25792C46.5381 8.76277 47.4996 8.51384 48.6855 8.51384C49.7069 8.51384 50.5596 8.69475 51.2423 9.05523C51.925 9.41571 52.4921 9.84421 52.9436 10.3394L50.9608 12.5022C50.6901 12.2166 50.4004 11.9799 50.0931 11.7922C49.7857 11.6044 49.4063 11.5106 48.9548 11.5106C48.2639 11.5106 47.7798 11.7554 47.501 12.2424C47.2222 12.7308 47.0848 13.2749 47.0848 13.8762V14.8896H51.0954V17.0525H47.0848V20.1172H53.0102V23.114H43.6836L43.6849 23.1167Z" fill="#E1B500"/>
<path d="M66.7035 95.9996H29.3951C22.0267 95.9996 16.0463 91.3336 16.0522 83.8167V45.7087C15.791 33.8236 23.6818 32.954 23.6818 32.954L23.6539 27.0425H72.5523L72.6919 32.8421C72.6919 32.8421 80.0463 33.5138 80.0463 45.2668V83.8167C80.0463 91.4955 74.0738 95.9996 66.7035 95.9996Z" fill="#0068E7"/>
<path d="M72.7058 25.5012H23.4425C22.9139 25.5012 22.4854 25.9308 22.4854 26.4608V26.5388C22.4854 27.0688 22.9139 27.4984 23.4425 27.4984H72.7058C73.2345 27.4984 73.663 27.0688 73.663 26.5388V26.4608C73.663 25.9308 73.2345 25.5012 72.7058 25.5012Z" fill="#0068E7"/>
<path d="M72.415 27.4009H23.9892C23.8064 27.4009 23.6582 27.5495 23.6582 27.7327V32.6007C23.6582 32.784 23.8064 32.9326 23.9892 32.9326H72.415C72.5978 32.9326 72.746 32.784 72.746 32.6007V27.7327C72.746 27.5495 72.5978 27.4009 72.415 27.4009Z" fill="#0057C8"/>
<path d="M43.5409 74.3328C43.5309 74.8206 43.509 75.2284 43.519 75.6343C43.5289 76.0281 43.3794 76.198 42.9686 76.186C41.3593 76.136 39.748 76.126 38.1388 76.0501C37.8835 76.0381 37.5465 75.8282 37.4029 75.6083C34.7387 71.524 32.7266 67.2158 32.8623 62.1719C32.8702 61.894 32.605 61.5302 32.3617 61.3402C31.5262 60.6905 31.1553 59.7829 31.4185 58.8893C31.6757 58.0136 32.603 57.174 33.5801 57.3479C34.0687 57.4339 34.324 57.178 34.5513 56.7661C35.2413 55.5147 36.1606 54.4071 37.2175 53.4475C39.6583 51.2305 42.6914 50.5607 45.8681 50.2249C48.7915 49.915 51.8963 49.981 54.6602 51.0865C55.1887 51.2984 55.5436 51.2705 56.0083 50.9606C57.7591 49.7971 59.6536 49.4632 61.8112 50.0949C61.3825 51.1925 61.0475 52.256 60.5589 53.2436C60.0125 54.3452 59.9906 55.2188 60.8261 56.2624C61.8511 57.5438 62.4135 59.1172 62.6667 60.7625C62.7485 61.3003 62.9957 61.5881 63.5202 61.7141C64.1444 61.864 64.7566 62.0719 65.4286 62.2698C65.3528 62.5517 65.309 62.7736 65.2332 62.9855C64.7865 64.205 64.3119 65.4145 63.8891 66.64C63.6399 67.3637 63.4185 67.9875 62.4254 67.8795C62.1522 67.8495 61.7195 68.2014 61.55 68.4912C60.4074 70.4424 58.8001 71.8778 56.782 72.8374C56.098 73.1633 55.7809 73.5471 55.8408 74.3128C55.8826 74.8506 55.9684 75.5283 55.6992 75.8981C55.4938 76.178 54.7599 76.1081 54.2594 76.124C53.043 76.164 51.8226 76.194 50.6061 76.15C50.4047 76.142 50.0697 75.7602 50.0478 75.5263C49.974 74.7246 49.637 74.4408 48.8154 74.4587C47.3377 74.4887 45.8581 74.3928 44.3784 74.3508C44.1272 74.3428 43.8739 74.3408 43.5429 74.3348L43.5409 74.3328Z" fill="#00AEEF"/>
<path d="M56.7821 61.3143C57.1539 61.1795 57.2722 60.5627 57.0464 59.9366C56.8206 59.3105 56.3361 58.9122 55.9642 59.047C55.5924 59.1817 55.4741 59.7986 55.6999 60.4247C55.9257 61.0508 56.4102 61.4491 56.7821 61.3143Z" fill="#0068E6"/>
<path d="M42.2158 53.7717C44.6347 52.9241 47.3268 52.6342 49.969 52.938Z" fill="#00AEEF"/>
<path d="M42.2149 54.2711C42.0095 54.2711 41.816 54.1412 41.7442 53.9353C41.6525 53.6754 41.7901 53.3895 42.0513 53.2996C44.546 52.4259 47.3019 52.13 50.0259 52.4399C50.2991 52.4719 50.4965 52.7198 50.4646 52.9937C50.4327 53.2676 50.1835 53.4635 49.9123 53.4335C47.3378 53.1396 44.7315 53.4195 42.3784 54.2432C42.3245 54.2631 42.2687 54.2711 42.2149 54.2711V54.2711Z" fill="#0068E7"/>
<path d="M67.3246 95.9997C67.3246 95.9997 41.4687 95.9787 30.5294 85.0486C14.4803 69.0131 15.9921 45.991 15.9921 45.991C15.9921 45.991 16.0549 75.4989 16.1294 80.1489C15.6547 85.0487 16.3264 89.0095 18.7863 91.6976C23.092 95.9998 27.0063 95.9998 32.4865 95.9998C37.5752 95.9998 66.5417 95.8787 67.3246 95.9997Z" fill="#0057C8"/>
</svg>
