<svg width="96" height="90" viewBox="0 0 96 90" fill="none" xmlns="http://www.w3.org/2000/svg">
<path d="M88.2806 21.207H4.11798C2.5052 21.207 1.20068 22.4526 1.20068 23.9871V85.6249C1.20068 87.1619 2.50767 88.4049 4.11798 88.4049H88.2806C89.8933 88.4049 91.1979 87.1593 91.1979 85.6249V23.9871C91.1979 22.4501 89.8909 21.207 88.2806 21.207Z" fill="#515151"/>
<rect x="57.5986" y="21.207" width="2.39993" height="67.1979" fill="#515151"/>
<path d="M34.2373 20.3672L34.2373 89.2079H4.35151C1.9499 89.2079 0.000205994 87.2546 0.000205994 84.8485L0.000205994 24.7267C0.000205994 22.3205 1.9499 20.3672 4.35151 20.3672L34.2373 20.3672Z" fill="#FFCB05"/>
<path d="M65.58 66.6904C62.6678 61.9557 61.1061 52.9801 60.916 44.1051C59.897 40.7324 58.0954 38.1454 55.5576 37.0006C52.7953 35.67 49.1869 36.1254 45.0302 38.4773C45.1451 37.6862 45.1933 36.9221 45.1779 36.186C48.3475 34.3573 51.1991 33.6409 53.5969 33.9826L48.0667 32.0503C47.0326 32.4767 45.9557 33.0355 44.8408 33.732C44.6502 33.0252 44.3798 32.3642 44.0243 31.754C44.3973 31.4955 44.764 31.2549 45.1276 31.0233L10.1079 18.7871L-3.20602 56.8911L19.6706 64.8845C19.8864 64.8157 20.1033 64.744 20.3212 64.6693C20.2573 64.7945 20.1904 64.9186 20.1264 65.0437L21.0561 65.3686C21.2754 64.9625 21.5017 64.5556 21.7301 64.1427C22.1724 63.9654 22.6137 63.781 23.0572 63.5807C22.6493 64.2761 22.2465 64.9667 21.8609 65.6464L22.8236 65.9828C23.4625 64.9055 24.1287 63.8177 24.824 62.7232C25.456 62.3977 26.0893 62.0492 26.7209 61.6766C25.6551 63.2147 24.6405 64.7607 23.6843 66.2835L24.716 66.644C26.2377 64.3501 27.8933 62.0292 29.6523 59.7881C30.8342 58.9575 32.0041 58.0557 33.153 57.0695C36.306 54.3635 38.9112 51.3957 40.8878 48.4161C46.4912 44.3507 51.3672 43.3495 54.8775 45.1492C57.8774 46.5896 59.8521 49.9912 60.7152 54.2145L60.6492 56.7053C59.8209 52.4305 57.8614 48.937 54.8526 47.4164C50.7322 45.1957 44.6968 46.8376 37.8069 52.8031C33.3493 56.7292 29.1448 61.8665 25.6157 66.9584L26.6864 67.3325C29.9878 62.8248 33.8227 58.3694 37.8705 54.9135C44.6605 49.2048 50.6199 47.6938 54.7069 49.933C57.7762 51.5116 59.7613 55.1146 60.5706 59.4632L60.4918 62.0098C59.7029 57.6416 57.7257 53.9676 54.6462 52.3218C50.5922 50.017 44.6791 51.3765 37.939 56.8748C34.2805 59.9003 30.8001 63.7455 27.738 67.7033L28.7877 68.07C31.5812 64.6787 34.6882 61.4304 37.9462 58.8382C44.5669 53.6333 50.3886 52.4296 54.3911 54.7566C57.478 56.4486 59.4537 60.1556 60.2309 64.4996L60.1609 66.6069C59.3922 62.3061 57.4448 58.5855 54.3928 56.832C50.4167 54.4103 44.622 55.4693 38.0216 60.5002C35.1158 62.7395 32.3336 65.5013 29.7893 68.42L31.1929 68.9105C33.4932 66.4395 35.9693 64.1204 38.5442 62.2213C45.074 57.4406 50.8113 56.5459 54.7603 59.0452C57.5304 60.7002 59.3954 63.963 60.2982 67.7744L60.2287 69.7646C59.3341 66.0164 57.498 62.7671 54.7737 61.0677C50.8541 58.4747 45.1389 59.2196 38.6355 63.8286C36.4314 65.398 34.2976 67.2769 32.2905 69.294L33.6341 69.7634C35.2749 68.2553 36.9897 66.8534 38.752 65.6525C45.1596 61.2983 50.7988 60.6844 54.6851 63.2959C57.389 65.0149 59.2185 68.2351 60.1319 71.9195C60.1732 71.5317 60.2155 71.1409 60.2588 70.7572C60.2741 70.2028 60.2946 69.6435 60.321 69.0862C60.3465 68.522 60.38 67.9639 60.4154 67.4098C60.2997 71.6128 60.48 75.6812 60.9313 79.3014L61.861 79.6262C60.8915 75.168 60.4589 69.597 60.5733 63.8182C60.5838 63.1816 60.6012 62.5442 60.6257 61.9058C60.6498 61.2975 60.6778 60.6972 60.7138 60.1031C60.585 67.8009 61.4371 75.2246 63.2615 80.1156L66.3445 81.1928C65.9608 80.8174 65.596 80.3782 65.2523 79.8693C62.1992 75.5378 60.7277 66.1212 60.8389 56.4129C60.8431 55.7842 60.8545 55.1547 60.8718 54.5272C60.8782 54.3451 60.8866 54.1671 60.893 53.985C60.8386 52.9369 60.8114 51.8783 60.7953 50.8168L60.787 51.2162C59.936 47.2854 58.1128 44.1244 55.3822 42.6743C52.2761 40.9119 48.0227 41.4603 43.1002 44.5402C43.6074 43.4738 44.025 42.4231 44.3499 41.397C48.7081 38.844 52.5 38.3355 55.3748 39.7388C57.9723 40.9246 59.8038 43.6092 60.8146 47.0729C60.8226 46.7707 60.8316 46.4655 60.8416 46.1673C60.8431 46.5097 60.8446 46.8521 60.8502 47.1926C60.8568 47.2217 60.8675 47.2489 60.8771 47.2791L60.864 47.8946C61.028 56.7672 62.5468 65.5669 65.4089 70.1367C68.1425 74.7084 72.2466 75.3481 77.2157 71.48L78.559 67.6356C73.0902 72.3077 68.5522 71.7444 65.5819 66.6944L65.58 66.6904ZM7.70724 55.3213C6.20772 54.7973 5.4127 53.1721 5.93144 51.6875C6.45018 50.2029 8.08437 49.4265 9.58388 49.9504C11.0834 50.4743 11.8774 52.1026 11.3597 53.5842C10.842 55.0658 9.20676 55.8452 7.70724 55.3213ZM20.0079 43.6746L10.7019 40.423L12.7884 34.4517L11.1449 33.8774L11.8901 31.7446L13.5336 32.3188L14.0085 30.9597C14.2934 30.1442 14.7379 29.4213 15.3347 28.7919C15.9315 28.1625 16.6854 27.7287 17.5914 27.4955C18.4973 27.2624 19.5456 27.3538 20.7272 27.7667C21.7469 28.123 22.537 28.5968 23.0925 29.1931C23.6481 29.7895 24.0677 30.4087 24.3474 31.0528L21.6229 32.494C21.4521 32.1159 21.2416 31.7843 21.0034 31.4932C20.7652 31.2022 20.4167 30.9765 19.9638 30.8183C19.274 30.5773 18.7077 30.6475 18.2627 31.035C17.8147 31.4215 17.4899 31.908 17.2832 32.4994L16.9336 33.5001L20.9343 34.898L20.1891 37.0308L16.1884 35.633L15.1321 38.6559L21.0492 40.7234L20.0159 43.6807L20.0079 43.6746Z" fill="#DDDDC0"/>
<path d="M47.5111 74.6128L54.4448 77.0355C52.532 75.4889 50.1739 74.6583 47.5111 74.6128Z" fill="#DDDDC0"/>
<path d="M54.6687 69.4413C50.8745 66.624 45.3687 66.7984 39.1221 70.5184C38.7233 70.7545 38.3253 71.0075 37.9322 71.2657L39.7286 71.8934C45.6924 68.6746 50.9506 68.6985 54.6168 71.4678C56.918 73.1165 58.5746 75.8103 59.5702 78.8263L59.6272 78.8462C59.6489 78.2638 59.6758 77.6766 59.7097 77.0885C58.7351 73.9257 57.0488 71.1142 54.6657 69.4402L54.6687 69.4413Z" fill="#DDDDC0"/>
<path d="M65.3161 73.2721C62.8385 69.4701 61.3816 62.4485 60.9369 54.8319C61.0392 63.8137 62.5142 72.4305 65.3678 76.6587C67.6322 80.175 70.8567 80.886 74.7536 78.507L76.0572 74.776C71.5619 77.9817 67.8495 77.3381 65.3142 73.268L65.3161 73.2721Z" fill="#DDDDC0"/>
<path d="M65.9135 53.8051C63.6466 49.7082 62.1523 43.3136 61.428 36.7189L61.1101 36.6078C61.6016 44.4083 63.1773 52.3228 65.8148 57.0153C68.7938 62.5509 73.2753 63.8923 78.616 60.1742C79.8175 59.384 81.0044 58.4044 82.1648 57.3082L83.3662 53.87C81.8238 55.3757 80.2206 56.6892 78.5919 57.662C73.3325 61.0029 68.8952 59.429 65.9135 53.8051Z" fill="#DDDDC0"/>
<path d="M41.7077 72.5844L44.3049 73.4919C48.2813 72.6188 51.7681 73.3109 54.418 75.3966C55.328 76.0765 56.1333 76.921 56.8408 77.8721L58.3883 78.4128C57.4721 76.5374 56.2637 74.8817 54.7539 73.6938C51.5174 71.0044 46.9495 70.4977 41.7107 72.5855L41.7077 72.5844Z" fill="#DDDDC0"/>
<path d="M78.1446 42.5598L70.0413 39.7284C72.4021 42.1019 75.1524 43.1299 78.1446 42.5598Z" fill="#DDDDC0"/>
<path d="M65.7896 59.9628C62.9575 55.0951 61.3535 46.4333 61.0106 38.0244C60.8056 37.4265 60.569 36.8612 60.3079 36.3275L56.4302 34.9726C58.4582 36.1605 59.9599 38.3444 60.8922 41.1371C60.8953 41.1281 60.8925 41.1171 60.8926 41.107C60.899 40.5495 60.9122 40.0011 60.9284 39.4637C60.937 40.1036 60.9546 40.7466 60.9763 41.3877C60.9811 41.4028 60.9859 41.4179 60.9907 41.4329L60.9868 41.6561C61.2978 50.1176 62.8661 58.6698 65.6732 63.3778C68.6512 68.5981 73.1768 69.4185 78.6115 65.0462C79.0082 64.739 79.4063 64.4088 79.7995 64.0636L81.0916 60.3655C80.2764 61.1096 79.4509 61.7866 78.6186 62.3773C73.2561 66.3793 68.7661 65.3032 65.7866 59.9617L65.7896 59.9628Z" fill="#DDDDC0"/>
<path d="M78.7029 52.8037C73.5478 55.4704 69.1579 53.4238 66.1702 47.5666C64.7042 44.8086 63.5494 41.1505 62.7042 37.1648L62.0534 36.9374C62.8481 42.0115 64.1137 46.7877 65.8612 50.2038C68.8554 56.3314 73.3861 58.3602 78.7665 55.2124C80.7147 54.1536 82.6273 52.5996 84.4334 50.8207L85.5492 47.6274C83.4158 49.7746 81.0911 51.6606 78.7059 52.8047L78.7029 52.8037Z" fill="#DDDDC0"/>
<path d="M78.4435 46.482C80.0001 46.0237 81.5201 45.2275 82.9762 44.248L80.7809 43.481C79.9717 43.8418 79.1513 44.1383 78.3163 44.3225C74.1433 45.4018 70.4421 43.3779 67.5942 38.8734L65.7468 38.2279C65.8677 38.4981 65.9908 38.7623 66.12 39.0186C69.11 45.3123 73.4313 48.1328 78.4415 46.4779L78.4435 46.482Z" fill="#DDDDC0"/>
<path d="M54.6263 67.5889C57.1039 69.2624 58.8441 72.1698 59.8159 75.4657C59.8613 74.8447 59.9086 74.2277 59.9639 73.6169C59.0184 70.1492 57.2419 67.1051 54.6702 65.4121C50.8149 62.7311 45.2209 63.1965 38.8673 67.3383C37.5423 68.2026 36.2498 69.1856 34.9906 70.2372L36.5261 70.7737C37.3385 70.1727 38.1635 69.6029 39.002 69.0813C45.274 65.1826 50.8049 64.8593 54.6274 67.586L54.6263 67.5889Z" fill="#DDDDC0"/>
<path d="M70.7943 82.7476L73.0076 83.5209L73.6077 81.8033C72.6176 82.3255 71.6786 82.6342 70.7943 82.7476Z" fill="#DDDDC0"/>
<path d="M66.132 44.8248C69.1213 50.8703 73.5076 53.1872 78.6397 50.8174C81.2786 49.6982 83.8415 47.6508 86.1415 45.354L84.63 44.8259C82.7177 46.4369 80.6609 47.8065 78.5459 48.5624C73.493 50.561 69.1491 48.0074 66.161 41.8719C65.5394 40.6459 64.9722 39.2645 64.4615 37.7788L63.4209 37.4152C64.1604 40.2009 65.0638 42.7488 66.135 44.8259L66.132 44.8248Z" fill="#DDDDC0"/>
<path d="M16.1837 35.628L20.1844 37.0259L20.9296 34.8931L16.9289 33.4952L17.2786 32.4945C17.4863 31.9001 17.811 31.4136 18.258 31.0301C18.706 30.6436 19.2723 30.5734 19.9591 30.8134C20.412 30.9716 20.7605 31.1973 20.9987 31.4883C21.2369 31.7793 21.4474 32.111 21.6182 32.4891L24.3428 31.0479C24.066 30.4048 23.6434 29.7846 23.0879 29.1882C22.5323 28.5919 21.7452 28.1191 20.7225 27.7618C19.5409 27.3489 18.4926 27.2575 17.5867 27.4906C16.6807 27.7238 15.9268 28.1575 15.33 28.787C14.7332 29.4164 14.2877 30.1423 14.0038 30.9548L13.5289 32.3139L11.8854 31.7397L11.1402 33.8725L12.7837 34.4468L10.6973 40.4181L20.0062 43.6707L21.0395 40.7134L15.1225 38.6459L16.1787 35.623L16.1837 35.628Z" fill="#001276"/>
<path d="M9.58271 49.9502C8.08319 49.4262 6.44796 50.2056 5.93026 51.6873C5.41257 53.1689 6.20655 54.7971 7.70607 55.321C9.20558 55.845 10.8398 55.0686 11.3585 53.584C11.8772 52.0993 11.0822 50.4741 9.58271 49.9502Z" fill="#001276"/>
<path d="M60.3193 69.0853C60.2919 69.6455 60.2755 70.2029 60.2571 70.7562C60.2109 71.1389 60.1696 71.5267 60.1303 71.9186C59.2168 68.2341 57.3844 65.0129 54.6834 63.2949C50.7971 60.6834 45.158 61.2973 38.7504 65.6515C36.988 66.8524 35.2763 68.2554 33.6324 69.7625L34.9906 70.2372C36.2498 69.1856 37.5423 68.2026 38.8673 67.3383C45.2209 63.1965 50.8149 62.7311 54.6702 65.4121C57.2419 67.1051 59.0184 70.1492 59.9639 73.6169C59.9086 74.2277 59.8583 74.8437 59.8159 75.4657C58.8441 72.1698 57.1039 69.2624 54.6263 67.5889C50.8069 64.8634 45.2763 65.1866 39.0013 69.0843C38.1639 69.6029 37.3389 70.1727 36.5255 70.7767L37.932 71.2682C38.3251 71.01 38.7231 70.7569 39.1219 70.5208C45.3685 66.8009 50.8773 66.6275 54.6685 69.4437C57.0476 71.1197 58.7379 73.9292 59.7125 77.0919C59.6786 77.6801 59.6518 78.2673 59.63 78.8497L60.9286 79.3034C60.4773 75.6832 60.301 71.6129 60.4127 67.4118C60.3773 67.9659 60.3428 68.527 60.3183 69.0883L60.3193 69.0853Z" fill="#99B0BE"/>
<path d="M44.8437 33.733C45.9575 33.0395 47.0355 32.4777 48.0696 32.0513L45.1305 31.0244C44.7669 31.256 44.3982 31.4925 44.0272 31.755C44.3827 32.3652 44.6531 33.0262 44.8437 33.733Z" fill="#99B0BE"/>
<path d="M19.6712 64.8854L20.1271 65.0446C20.191 64.9195 20.2579 64.7954 20.3218 64.6702C20.1039 64.7449 19.8871 64.8166 19.6712 64.8854Z" fill="#99B0BE"/>
<path d="M21.727 64.1445C21.4986 64.5575 21.2753 64.9655 21.053 65.3705L21.8598 65.6523C22.2464 64.9696 22.6462 64.278 23.056 63.5866C22.6125 63.7869 22.1682 63.9702 21.729 64.1486L21.727 64.1445Z" fill="#99B0BE"/>
<path d="M66.1729 47.5675C69.1617 53.4217 73.5538 55.4725 78.7059 52.8047C81.0911 51.6606 83.4158 49.7746 85.5492 47.6274L86.3212 45.4168L86.1415 45.354C83.8415 47.6508 81.2786 49.6982 78.6397 50.8174C73.5076 53.1872 69.1243 50.8713 66.132 44.8248C65.0608 42.7478 64.1602 40.2008 63.4176 37.4141L62.7009 37.1636C63.5461 41.1493 64.7009 44.8075 66.1669 47.5654L66.1729 47.5675Z" fill="#99B0BE"/>
<path d="M65.4058 70.1357C62.5437 65.5659 61.0279 56.7673 60.8609 47.8936L60.8741 47.2781C60.8674 47.249 60.8567 47.2218 60.8471 47.1916C60.8426 46.8482 60.84 46.5087 60.8385 46.1663C60.8286 46.4645 60.8195 46.7697 60.8115 47.0719C59.8018 43.6053 57.9692 40.9237 55.3717 39.7379C52.4969 38.3345 48.705 38.843 44.3468 41.3961C44.0209 42.4252 43.6033 43.4759 43.0971 44.5392C48.0227 41.4604 52.273 40.911 55.3791 42.6733C58.1067 44.1224 59.93 47.2834 60.7839 51.2152L60.7922 50.8159C60.8083 51.8773 60.8355 52.936 60.8899 53.984C60.8835 54.1661 60.8751 54.3442 60.8687 54.5263C60.8514 55.1537 60.839 55.7863 60.8358 56.4119C60.7277 66.1213 62.1961 75.5369 65.2492 79.8683C65.59 80.3762 65.9548 80.8154 66.3415 81.1918L70.792 82.7469C71.6782 82.6376 72.6173 82.3289 73.6055 81.8027L74.7557 78.5108C70.8557 80.8888 67.6343 80.1788 65.3699 76.6626C62.5133 72.4333 61.0383 63.8165 60.9389 54.8357C61.3837 62.4523 62.8406 69.474 65.3182 73.2759C67.8535 77.346 71.5659 77.9896 76.0612 74.7839L77.2157 71.48C72.2456 75.351 68.1425 74.7084 65.4089 70.1367L65.4058 70.1357Z" fill="#99B0BE"/>
<path d="M24.8238 62.7269C24.1314 63.8223 23.4612 64.9121 22.8234 65.9864L23.6841 66.2872C24.6412 64.7613 25.6559 63.2154 26.7206 61.6802C26.086 62.0518 25.4557 62.4013 24.8238 62.7269Z" fill="#99B0BE"/>
<path d="M44.3049 73.4919L47.5111 74.6128C50.1739 74.6583 52.529 75.4879 54.4448 77.0355L56.8408 77.8721C56.1333 76.921 55.328 76.0765 54.418 75.3966C51.7681 73.3109 48.2813 72.6188 44.3049 73.4919Z" fill="#99B0BE"/>
<path d="M54.62 71.4682C50.9537 68.6989 45.6956 68.675 39.7318 71.8938L41.7077 72.5844C46.9435 70.4956 51.5118 71.0023 54.7513 73.6928C56.2631 74.8847 57.4695 76.5363 58.3858 78.4117L59.5734 78.8267C58.5778 75.8107 56.9211 73.1169 54.62 71.4682Z" fill="#99B0BE"/>
<path d="M78.3163 44.3225C79.1493 44.1343 79.9727 43.8388 80.7809 43.481L78.1446 42.5598C75.1524 43.1299 72.4021 42.1019 70.0413 39.7284L67.5964 38.8742C70.4443 43.3786 74.1455 45.4026 78.3185 44.3233L78.3163 44.3225Z" fill="#99B0BE"/>
<path d="M65.8148 57.0153C63.1773 52.3228 61.6016 44.4083 61.1101 36.6078L60.3098 36.3282C60.5709 36.8618 60.8045 37.4261 61.0125 38.025C61.3554 46.4339 62.9583 55.0988 65.7915 59.9634C68.771 65.3049 73.2599 66.384 78.6235 62.379C79.4548 61.7913 80.2813 61.1114 81.0965 60.3672L82.1664 57.3054C81.006 58.4016 79.819 59.3812 78.6175 60.1714C73.2768 63.8894 68.7953 62.5481 65.8164 57.0124L65.8148 57.0153Z" fill="#99B0BE"/>
<path d="M54.8431 47.4164C57.852 48.937 59.8133 52.4345 60.6397 56.7053L60.7058 54.2144C59.8456 49.9923 57.8679 46.5896 54.868 45.1492C51.3577 43.3495 46.4817 44.3507 40.8783 48.4161C38.9017 51.3957 36.2965 54.3635 33.1435 57.0695C31.9956 58.0527 30.8247 58.9575 29.6428 59.7881C27.8848 62.0263 26.2292 64.3471 24.7065 66.644L25.6002 66.9563C29.1293 61.8645 33.3338 56.7271 37.7915 52.801C44.6794 46.8315 50.7137 45.1926 54.8371 47.4143L54.8431 47.4164Z" fill="#99B0BE"/>
<path d="M78.5459 48.5624C80.6619 47.8035 82.7187 46.434 84.63 44.8259L82.9762 44.248C81.5211 45.2245 80.0001 46.0237 78.4435 46.482C73.4333 48.1369 69.112 45.313 66.121 39.0223C65.9948 38.767 65.8728 38.4998 65.7478 38.2316L64.4582 37.781C64.9718 39.2677 65.5361 40.648 66.1576 41.8741C69.1457 48.0096 73.4897 50.5632 78.5425 48.5646L78.5459 48.5624Z" fill="#99B0BE"/>
<path d="M65.6763 63.3789C62.8692 58.6708 61.301 50.1187 60.9899 41.6572L60.9938 41.434C60.9938 41.434 60.9842 41.4039 60.9794 41.3888C60.9547 40.7466 60.9401 40.1047 60.9315 39.4648C60.9153 40.0022 60.9021 40.5506 60.8957 41.1081C60.8956 41.1181 60.8955 41.1282 60.8953 41.1382C59.9601 38.3444 58.4614 36.1616 56.4333 34.9737L53.5992 33.9834C51.2004 33.6447 48.3499 34.3581 45.1803 36.1868C45.1957 36.9229 45.1474 37.687 45.0325 38.4781C49.1892 36.1262 52.7966 35.6738 55.5599 37.0014C58.0958 38.1422 59.9004 40.7302 60.9184 44.1059C61.1095 52.978 62.6701 61.9565 65.5823 66.6912C68.5526 71.7412 73.0906 72.3045 78.5594 67.6324L79.8056 64.0657C79.4094 64.4099 79.0143 64.7412 78.6176 65.0483C73.1829 69.4207 68.6574 68.6003 65.6793 63.38L65.6763 63.3789Z" fill="#99B0BE"/>
<path d="M65.8579 50.2026C64.1103 46.7865 62.8447 42.0104 62.0501 36.9362L61.4263 36.7183C62.1476 43.312 63.6449 49.7076 65.9118 53.8045C68.8905 59.4273 73.3308 61.0023 78.5902 57.6614C80.2189 56.6886 81.8231 55.3721 83.3645 53.8694L84.4301 50.8195C82.626 52.6024 80.7114 54.1524 78.7632 55.2113C73.3828 58.3591 68.8521 56.3302 65.8579 50.2026Z" fill="#99B0BE"/>
<path d="M60.6214 61.9046C60.5969 62.5429 60.5795 63.1804 60.5691 63.8169C60.4546 69.5957 60.8861 75.1698 61.8567 79.625L63.2572 80.1143C61.4338 75.2204 60.5777 67.7986 60.7095 60.1019C60.6765 60.6971 60.6455 61.2963 60.6214 61.9046Z" fill="#99B0BE"/>
<path d="M54.3928 56.832C57.4458 58.5825 59.3922 62.3061 60.1609 66.6069L60.2309 64.4996C59.4537 60.1556 57.475 56.4475 54.3911 54.7566C50.3896 52.4266 44.5679 53.6303 37.9462 58.8382C34.6852 61.4293 31.5801 64.6817 28.7877 68.07L29.7947 68.4219C32.3379 65.5062 35.1212 62.7414 38.027 60.5021C44.6254 55.4671 50.4231 54.4092 54.3982 56.8338L54.3928 56.832Z" fill="#99B0BE"/>
<path d="M54.6386 52.3227C57.7181 53.9686 59.6942 57.6455 60.4842 62.0108L60.563 59.4641C59.7537 55.1156 57.7686 51.5126 54.6993 49.934C50.6142 47.6988 44.6529 49.2057 37.8629 54.9145C33.8132 58.3663 29.9772 62.8247 26.6788 67.3334L27.7344 67.7023C30.7966 63.7445 34.274 59.8982 37.9354 56.8738C44.6725 51.3745 50.5886 50.0161 54.6427 52.3208L54.6386 52.3227Z" fill="#99B0BE"/>
<path d="M54.7726 61.0712C57.4928 62.7725 59.33 66.0188 60.2275 69.768L60.297 67.7778C59.3943 63.9665 57.5292 60.7037 54.7591 59.0487C50.8131 56.5504 45.0739 57.441 38.5431 62.2248C35.9711 64.1249 33.492 66.4429 31.1917 68.9139L32.2864 69.2964C34.2965 67.2804 36.4293 65.4045 38.6314 63.831C45.1347 59.222 50.8499 58.4772 54.7696 61.0701L54.7726 61.0712Z" fill="#99B0BE"/>
<path d="M66.2703 62.8049C63.7436 57.6375 63.0313 48.2371 63.7215 39.0771C63.0087 35.5015 61.4113 32.6571 58.9118 31.2246C56.1995 29.5785 52.4375 29.6872 47.9215 31.6946C48.1188 30.8913 48.2448 30.1091 48.3024 29.3494C51.7496 27.7823 54.7581 27.3291 57.1936 27.9205L51.6906 25.3781C50.583 25.7141 49.418 26.1821 48.2001 26.7881C48.0745 26.0412 47.8619 25.3334 47.5567 24.6694C47.9666 24.4404 48.3684 24.2292 48.766 24.027L13.9185 7.92773L-3.59872 45.8444L19.1654 56.3613C19.3946 56.312 19.6251 56.2598 19.857 56.2047C19.7787 56.3272 19.6974 56.4483 19.619 56.5708L20.5442 56.9982C20.8106 56.6019 21.0843 56.2054 21.3608 55.8029C21.8339 55.6644 22.3069 55.5186 22.7837 55.3566C22.2942 56.0321 21.8103 56.7031 21.3453 57.3648L22.3033 57.8073C23.0689 56.7616 23.8636 55.7076 24.6891 54.6498C25.3725 54.3776 26.0596 54.0819 26.7473 53.7612C25.496 55.239 24.2966 56.73 23.1598 58.203L24.1864 58.6773C25.9827 56.4666 27.9196 54.2414 29.955 52.1087C31.2554 51.3713 32.5503 50.5593 33.8321 49.6582C37.3498 47.1859 40.3293 44.3893 42.6627 41.5177C48.8399 37.8899 53.9619 37.3455 57.3978 39.5496C60.3438 41.3326 62.038 45.0334 62.5054 49.4693L62.1887 52.0282C61.7623 47.5426 60.093 43.7488 57.1458 41.8823C53.1236 39.1837 46.7434 40.2722 39.0515 45.7286C34.0682 49.3273 29.2248 54.1988 25.0817 59.0909L26.1471 59.5831C29.9974 55.2699 34.3921 51.0639 38.9062 47.9086C46.4697 42.7066 52.7585 41.7454 56.7444 44.4597C59.7482 46.3921 61.433 50.3013 61.8324 54.8609L61.497 57.476C61.1205 52.8981 59.4509 48.9166 56.4434 46.914C52.498 44.1355 46.272 44.9453 38.7809 49.9355C34.7108 52.6864 30.7422 56.2993 27.1932 60.07L28.2377 60.5526C31.4535 57.3385 34.9779 54.303 38.5924 51.9584C45.9311 47.2586 52.0475 46.6 55.9376 49.3963C58.9481 51.4472 60.6129 55.4626 60.9797 60.0144L60.6972 62.1779C60.3349 57.6713 58.7006 53.6449 55.7322 51.5341C51.8787 48.6429 45.8046 49.1551 38.5042 53.6778C35.2876 55.6941 32.1463 58.2609 29.2344 61.0131L30.6311 61.6583C33.247 59.3429 36.0288 57.2015 38.8706 55.5026C46.0733 51.2305 52.0719 50.8818 55.8897 53.8503C58.5775 55.8315 60.1727 59.3783 60.722 63.394L60.4518 65.4369C59.9046 61.4871 58.3379 57.9571 55.7016 55.9348C51.9234 52.8728 45.9625 53.0694 38.8041 57.1672C36.3773 58.5636 33.9919 60.2858 31.7233 62.1629L33.0603 62.7806C34.9009 61.391 36.807 60.1183 38.742 59.0574C45.7764 55.2124 51.6458 55.1431 55.3878 58.2209C58.0012 60.2614 59.564 63.7607 60.137 67.6468C60.2182 67.2515 60.3008 66.8532 60.3836 66.4622C60.4548 65.8928 60.5317 65.3187 60.6146 64.7474C60.6972 64.1688 60.7874 63.5973 60.8792 63.0302C60.3404 67.3476 60.1199 71.5559 60.2233 75.3296L61.1484 75.757C60.5949 71.0685 60.7056 65.2872 61.4004 59.3467C61.4747 58.6921 61.5563 58.0373 61.6453 57.3823C61.7309 56.7581 61.8197 56.1427 61.916 55.5344C61.0148 63.4499 61.1512 71.1812 62.5421 76.4009L65.6099 77.8182C65.2522 77.3933 64.9203 76.9045 64.6171 76.346C61.9049 71.5799 61.3295 61.7342 62.4132 51.746C62.4804 51.0989 62.5549 50.4517 62.6354 49.8071C62.6602 49.6202 62.6866 49.4376 62.7114 49.2507C62.76 48.1658 62.8377 47.0728 62.927 45.9779L62.8786 46.3884C62.3946 42.2549 60.8323 38.8171 58.1647 37.0509C55.1415 34.9256 50.7059 35.0658 45.3283 37.7465C45.9572 36.6988 46.4922 35.6583 46.9293 34.6339C51.673 32.4395 55.6293 32.2943 58.4501 34.0267C61.0071 35.5074 62.6255 38.4553 63.3207 42.1237C63.3591 41.8132 63.3989 41.4997 63.439 41.1936C63.4063 41.5464 63.3737 41.8993 63.3454 42.2505C63.3493 42.2812 63.3576 42.3102 63.3646 42.3423L63.2896 42.9749C62.5727 52.1298 63.2584 61.3449 65.7501 66.3373C68.1091 71.319 72.2724 72.3876 77.7766 68.8997L79.544 65.0742C73.4448 69.3404 68.8271 68.3071 66.272 62.8092L66.2703 62.8049ZM7.79833 45.3171C6.30618 44.6277 5.64959 42.8744 6.3321 41.3971C7.0146 39.9198 8.77529 39.2833 10.2674 39.9726C11.7596 40.662 12.4148 42.4183 11.7337 43.8926C11.0525 45.3669 9.29047 46.0065 7.79833 45.3171ZM21.6304 34.5495L12.3702 30.2713L15.1153 24.3293L13.4799 23.5738L14.4604 21.4515L16.0958 22.207L16.7207 20.8545C17.0956 20.0431 17.6255 19.3429 18.303 18.7542C18.9806 18.1655 19.8004 17.794 20.7567 17.6443C21.7131 17.4946 22.7837 17.6934 23.9595 18.2366C24.9741 18.7054 25.7407 19.2723 26.2533 19.942C26.7659 20.6116 27.1363 21.2913 27.3601 21.9827L24.41 23.195C24.2719 22.7886 24.0882 22.426 23.8719 22.1024C23.6556 21.7789 23.3192 21.5116 22.8685 21.3034C22.1822 20.9863 21.5918 21.0022 21.0948 21.3569C20.5948 21.7102 20.2117 22.1788 19.9398 22.7674L19.4798 23.7632L23.4608 25.6024L22.4803 27.7247L18.4993 25.8855L17.1095 28.8936L22.9975 31.6138L21.638 34.5566L21.6304 34.5495Z" fill="#E8E8C9"/>
<path d="M46.869 69.1607L53.7687 72.3483C51.9529 70.5644 49.607 69.4734 46.869 69.1607Z" fill="#E8E8C9"/>
<path d="M54.7574 64.5488C51.1308 61.2683 45.4426 60.8983 38.6374 64.1061C38.2031 64.3094 37.7678 64.5303 37.3372 64.757L39.1248 65.5828C45.5887 62.863 51.002 63.4126 54.5017 66.6308C56.7072 68.5587 58.1445 71.4987 58.8689 74.7044L58.9256 74.7306C59.0061 74.133 59.0924 73.5308 59.186 72.9284C58.498 69.5736 57.0419 66.5095 54.7544 64.5474L54.7574 64.5488Z" fill="#E8E8C9"/>
<path d="M65.3415 69.5574C63.1692 65.3942 62.3697 58.0167 62.6721 50.1274C61.8807 59.3886 62.5396 68.4109 65.0566 73.0507C67.0378 76.8984 70.2879 77.9527 74.5391 75.8914L76.2543 72.1788C71.3042 75.0317 67.5448 73.9983 65.3399 69.5531L65.3415 69.5574Z" fill="#E8E8C9"/>
<path d="M67.9003 49.5667C65.9746 45.1207 65.0739 38.3853 64.9862 31.5206L64.6699 31.3744C64.3974 39.4578 65.2301 47.7669 67.4782 52.8632C69.9937 58.8622 74.4756 60.6911 80.3476 57.3949C81.664 56.701 82.9843 55.8105 84.2889 54.7973L85.8695 51.376C84.1306 52.7728 82.3483 53.9657 80.5736 54.8049C74.823 57.7209 70.4099 55.6568 67.9003 49.5667Z" fill="#E8E8C9"/>
<path d="M41.0942 66.4922L43.6786 67.6861C47.8614 67.1839 51.3836 68.2448 53.9047 70.6575C54.774 71.4487 55.5192 72.3989 56.1529 73.4492L57.6928 74.1606C56.9364 72.1375 55.8571 70.3115 54.4206 68.9373C51.3556 65.8442 46.7015 64.8662 41.0972 66.4935L41.0942 66.4922Z" fill="#E8E8C9"/>
<path d="M81.6207 39.2056L73.5572 35.4803C75.7518 38.1606 78.4819 39.494 81.6207 39.2056Z" fill="#E8E8C9"/>
<path d="M67.1579 55.8965C64.7269 50.6003 63.9397 41.5187 64.426 32.8236C64.2746 32.1873 64.0873 31.5814 63.8717 31.0057L60.013 29.223C61.9832 30.649 63.3119 33.0483 63.9933 36.0177C63.9974 36.0088 63.9956 35.9971 63.9967 35.9868C64.0589 35.4132 64.1273 34.8497 64.1976 34.2978C64.1426 34.9577 64.0965 35.6218 64.0549 36.2842C64.0583 36.3002 64.0618 36.3163 64.0652 36.3323L64.0389 36.5618C63.5145 45.3079 64.2759 54.2729 66.6971 59.4023C69.2432 65.0764 73.8224 66.3732 79.8566 62.4124C80.2959 62.1357 80.7388 61.8353 81.1783 61.519L82.8783 57.8391C81.9643 58.5241 81.0466 59.1389 80.1304 59.6642C74.2076 63.2508 69.6904 61.6942 67.1549 55.8951L67.1579 55.8965Z" fill="#E8E8C9"/>
<path d="M81.1729 49.8122C75.5971 52.0442 71.2801 49.4979 68.7876 43.1669C67.553 40.1799 66.7288 36.2968 66.2562 32.1073L65.6086 31.8081C65.9205 37.1137 66.7471 42.1593 68.206 45.8522C70.6782 52.4624 75.1421 55.0044 80.998 52.2994C83.1103 51.4033 85.2354 49.9937 87.2732 48.3418L88.7412 45.1643C86.3296 47.1629 83.7469 48.8732 81.1759 49.8135L81.1729 49.8122Z" fill="#E8E8C9"/>
<path d="M81.5369 43.2751C83.186 42.9585 84.831 42.2902 86.4285 41.4267L84.244 40.4175C83.3745 40.7084 82.4999 40.9319 81.6215 41.0383C77.2157 41.7332 73.6057 39.2791 71.1221 34.3553L69.2838 33.506C69.3814 33.7964 69.4818 34.0808 69.5892 34.3577C72.0405 41.1385 76.2098 44.475 81.5353 43.2708L81.5369 43.2751Z" fill="#E8E8C9"/>
<path d="M54.8987 62.6367C57.2835 64.6077 58.7856 67.776 59.4575 71.2677C59.5662 70.6326 59.6765 70.0019 59.7944 69.3783C59.1668 65.7123 57.641 62.3996 55.1612 60.3991C51.4581 57.2528 45.65 57.1736 38.6925 60.8052C37.2414 61.5632 35.8121 62.4466 34.4102 63.404L35.9381 64.1099C36.8349 63.5719 37.7415 63.0674 38.6571 62.614C45.5064 59.2245 51.2353 59.4438 54.9001 62.6338L54.8987 62.6367Z" fill="#E8E8C9"/>
<path d="M70.0378 79.8638L72.2402 80.8813L73.0298 79.1721C71.9579 79.6111 70.9599 79.8354 70.0378 79.8638Z" fill="#E8E8C9"/>
<path d="M69.022 40.3391C71.4973 46.8642 75.7837 49.6885 81.3061 47.7601C84.1359 46.8708 86.98 45.0179 89.5783 42.8819L88.0742 42.187C85.9437 43.6554 83.6885 44.8607 81.4347 45.4281C76.0309 46.9821 71.8117 43.9183 69.3466 37.3006C68.8288 35.9758 68.3825 34.4963 68.0049 32.9152L66.9693 32.4368C67.4529 35.3798 68.1289 38.0943 69.0249 40.3405L69.022 40.3391Z" fill="#E8E8C9"/>
<path d="M18.4949 25.88L22.476 27.7192L23.4565 25.5968L19.4754 23.7576L19.9355 22.7618C20.2088 22.1703 20.5918 21.7017 21.0905 21.3513C21.5905 20.998 22.1808 20.9822 22.8642 21.2979C23.3148 21.5061 23.6513 21.7733 23.8675 22.0969C24.0838 22.4204 24.2676 22.783 24.4057 23.1895L27.3558 21.9771C27.135 21.2872 26.7616 20.6061 26.249 19.9365C25.7363 19.2668 24.9728 18.7012 23.9551 18.2311C22.7793 17.6879 21.7088 17.4891 20.7524 17.6388C19.796 17.7885 18.9762 18.1599 18.2987 18.7486C17.6211 19.3373 17.0898 20.0405 16.7163 20.849L16.0915 22.2015L14.4561 21.4459L13.4756 23.5683L15.111 24.3238L12.3659 30.2658L21.6291 34.5453L22.9886 31.6026L17.1006 28.8824L18.4903 25.8742L18.4949 25.88Z" fill="#001276"/>
<path d="M10.2662 39.9723C8.7741 39.2829 7.01204 39.9224 6.33091 41.3968C5.64978 42.8711 6.305 44.6274 7.79714 45.3167C9.28929 46.0061 11.05 45.3696 11.7325 43.8922C12.415 42.4149 11.7584 40.6616 10.2662 39.9723Z" fill="#001276"/>
<path d="M60.613 64.7463C60.5287 65.3206 60.4562 65.893 60.382 66.4611C60.2962 66.8507 60.215 67.246 60.1354 67.6456C59.5624 63.7596 57.9966 60.2589 55.3862 58.2197C51.6442 55.142 45.7748 55.2113 38.7404 59.0562C36.8054 60.1172 34.9022 61.3913 33.0587 62.7794L34.4102 63.404C35.8121 62.4466 37.2414 61.5632 38.6925 60.8052C45.65 57.1736 51.4581 57.2528 55.1612 60.3991C57.641 62.3996 59.1668 65.7123 59.7944 69.3783C59.6765 70.0019 59.5632 70.6312 59.4575 71.2677C58.7856 67.776 57.2835 64.6077 54.8987 62.6367C51.2369 59.4482 45.5084 59.2289 38.6561 62.617C37.7419 63.0674 36.8352 63.5719 35.9371 64.1129L37.3368 64.7595C37.7674 64.5328 38.2026 64.3119 38.6369 64.1086C45.4421 60.9008 51.1334 61.2721 54.757 64.5513C57.0401 66.515 58.5005 69.5775 59.1885 72.9323C59.0949 73.5347 59.0086 74.1369 58.9281 74.7345L60.2203 75.3315C60.1169 71.5578 60.3418 67.3478 60.8762 63.032C60.7844 63.5992 60.6928 64.1736 60.6116 64.7493L60.613 64.7463Z" fill="#99B0BE"/>
<path d="M48.203 26.7895C49.4195 26.1865 50.5859 25.7154 51.6935 25.3795L48.7689 24.0283C48.3713 24.2306 47.9679 24.4374 47.5596 24.6707C47.8648 25.3347 48.0774 26.0425 48.203 26.7895Z" fill="#99B0BE"/>
<path d="M19.166 56.3623L19.6196 56.5718C19.6979 56.4493 19.7792 56.3282 19.8576 56.2057C19.6257 56.2608 19.3951 56.313 19.166 56.3623Z" fill="#99B0BE"/>
<path d="M21.3574 55.8045C21.0809 56.207 20.8101 56.6049 20.5408 56.9999L21.3435 57.3707C21.8099 56.7061 22.2908 56.0337 22.7819 55.3625C22.3051 55.5246 21.8292 55.669 21.359 55.8089L21.3574 55.8045Z" fill="#99B0BE"/>
<path d="M68.7902 43.1681C71.2841 49.4961 75.6031 52.0469 81.1759 49.8135C83.7469 48.8732 86.3296 47.1629 88.7412 45.1643L89.7571 42.9645L89.5783 42.8819C86.98 45.0179 84.1359 46.8708 81.3061 47.7601C75.7837 49.6885 71.5002 46.8656 69.022 40.3391C68.126 38.0929 67.4527 35.3797 66.9661 32.4353L66.2529 32.1058C66.7255 36.2953 67.5497 40.1784 68.7843 43.1653L68.7902 43.1681Z" fill="#99B0BE"/>
<path d="M65.747 66.336C63.2554 61.3436 62.5726 52.1299 63.2865 42.9736L63.3615 42.341C63.3576 42.3103 63.3493 42.2813 63.3423 42.2492C63.372 41.895 63.4033 41.5451 63.4359 41.1923C63.3959 41.4984 63.3561 41.8119 63.3176 42.1224C62.6238 38.451 61.004 35.5061 58.447 34.0254C55.6262 32.293 51.6699 32.4382 46.9262 34.6326C46.4878 35.66 45.9527 36.7005 45.3253 37.7452C50.7058 35.0659 55.1384 34.9243 58.1616 37.0496C60.8263 38.8145 62.3886 42.2522 62.8756 46.3871L62.924 45.9766C62.8346 47.0715 62.7569 48.1645 62.7083 49.2494C62.6836 49.4364 62.6571 49.6189 62.6323 49.8059C62.5519 50.4504 62.476 51.1006 62.4102 51.7447C61.3294 61.7342 61.9019 71.5786 64.614 76.3447C64.9143 76.9018 65.2461 77.3906 65.6069 77.8169L70.0355 79.8629C70.9592 79.8388 71.9573 79.6146 73.0276 79.1713L74.5409 75.8956C70.2867 77.9555 67.0396 76.9026 65.0583 73.0549C62.5384 68.4137 61.8795 59.3914 62.6738 50.1316C62.3714 58.0208 63.171 65.3984 65.3432 69.5616C67.5482 74.0068 71.3076 75.0403 76.2577 72.1874L77.7766 68.8997C72.271 72.3905 68.1091 71.319 65.7501 66.3373L65.747 66.336Z" fill="#99B0BE"/>
<path d="M24.6885 54.6535C23.866 55.7127 23.0669 56.7682 22.3027 57.811L23.1592 58.2067C24.2973 56.7307 25.4967 55.2397 26.7467 53.7649C26.056 54.0842 25.3719 54.3813 24.6885 54.6535Z" fill="#99B0BE"/>
<path d="M43.6786 67.6861L46.869 69.1607C49.607 69.4734 51.9499 70.563 53.7687 72.3483L56.1529 73.4492C55.5192 72.3989 54.774 71.4487 53.9047 70.6575C51.3836 68.2448 47.8614 67.1839 43.6786 67.6861Z" fill="#99B0BE"/>
<path d="M54.5049 66.6316C51.0053 63.4133 45.5919 62.8637 39.128 65.5836L41.0942 66.4922C46.6955 64.8635 51.3501 65.8414 54.418 68.9359C55.8561 70.3145 56.9338 72.1361 57.6903 74.1592L58.8721 74.7052C58.1478 71.4994 56.7104 68.5595 54.5049 66.6316Z" fill="#99B0BE"/>
<path d="M81.6215 41.0383C82.4983 40.9275 83.3759 40.7054 84.244 40.4175L81.6207 39.2056C78.4819 39.494 75.7518 38.1606 73.5572 35.4803L71.1243 34.3563C73.6079 39.2801 77.2179 41.7342 81.6237 41.0393L81.6215 41.0383Z" fill="#99B0BE"/>
<path d="M67.4782 52.8632C65.2301 47.7669 64.3974 39.4578 64.6699 31.3744L63.8736 31.0066C64.0892 31.5823 64.2735 32.1868 64.4279 32.8244C63.9416 41.5196 64.7274 50.6041 67.1598 55.8974C69.6953 61.6964 74.2111 63.2561 80.1352 59.6665C81.0501 59.1441 81.9692 58.5264 82.8832 57.8413L84.2908 54.7946C82.9862 55.8077 81.6659 56.6982 80.3495 57.3921C74.4775 60.6884 69.9956 58.8595 67.4801 52.8605L67.4782 52.8632Z" fill="#99B0BE"/>
<path d="M57.136 41.8813C60.0832 43.7479 61.7542 47.546 62.1789 52.0273L62.4956 49.4684C62.0312 45.0338 60.334 41.3317 57.388 39.5487C53.9522 37.3446 48.8301 37.889 42.6529 41.5167C40.3195 44.3883 37.34 47.185 33.8223 49.6572C32.5419 50.5553 31.2456 51.3704 29.9453 52.1078C27.9112 54.2375 25.9743 56.4626 24.1766 58.6764L25.0659 59.0872C29.2091 54.1951 34.0525 49.3235 39.0357 45.7249C46.7261 40.2641 53.1049 39.1786 57.13 41.8786L57.136 41.8813Z" fill="#99B0BE"/>
<path d="M81.4347 45.4281C83.6899 44.8577 85.9451 43.6525 88.0742 42.187L86.4285 41.4267C84.8324 42.2872 83.186 42.9585 81.5369 43.2751C76.2114 44.4794 72.0425 41.1395 69.5899 34.3616C69.4854 34.0861 69.3864 33.7987 69.2844 33.5099L68.0012 32.9171C68.3818 34.4996 68.8252 35.9777 69.3429 37.3025C71.808 43.9202 76.0272 46.984 81.431 45.43L81.4347 45.4281Z" fill="#99B0BE"/>
<path d="M66.7002 59.4037C64.279 54.2743 63.5176 45.3093 64.042 36.5632L64.0683 36.3337C64.0683 36.3337 64.0614 36.3017 64.058 36.2857C64.0967 35.6218 64.1457 34.9592 64.2007 34.2993C64.1304 34.8511 64.062 35.4147 63.9998 35.9883C63.9987 35.9986 63.9975 36.0089 63.9964 36.0192C63.312 33.0483 61.9863 30.6505 60.0161 29.2244L57.196 27.9216C54.7591 27.3332 51.7519 27.7834 48.3048 29.3505C48.2471 30.1101 48.1211 30.8923 47.9238 31.6957C52.4399 29.6883 56.2005 29.5825 58.9141 31.2257C61.412 32.6539 63.0124 35.4997 63.7239 39.0781C63.035 48.2352 63.7459 57.6386 66.2727 62.8059C68.8278 68.3038 73.4455 69.3371 79.5447 65.0709L81.1843 61.5218C80.7419 61.8368 80.3019 62.1385 79.8626 62.4152C73.8285 66.376 69.2493 65.0792 66.7031 59.4051L66.7002 59.4037Z" fill="#99B0BE"/>
<path d="M68.2027 45.8507C66.7438 42.1578 65.9172 37.1121 65.6053 31.8066L64.9845 31.5198C65.0692 38.3832 65.9729 45.1199 67.8986 49.566C70.4053 55.6547 74.8213 57.7201 80.5719 54.8042C82.3466 53.9649 84.1303 52.7691 85.8678 51.3752L87.2699 48.3403C85.2337 49.9966 83.107 51.4018 80.9947 52.2979C75.1388 55.0029 70.6749 52.4609 68.2027 45.8507Z" fill="#99B0BE"/>
<path d="M61.641 57.3806C61.552 58.0356 61.4704 58.6904 61.3961 59.345C60.7013 65.2855 60.5893 71.0697 61.1441 75.7553L62.5378 76.3992C61.1483 71.1765 61.0076 63.4469 61.9117 55.5327C61.8183 56.1424 61.7266 56.7564 61.641 57.3806Z" fill="#99B0BE"/>
<path d="M55.7322 51.5341C58.7019 53.6419 60.3349 57.6713 60.6972 62.1779L60.9797 60.0144C60.6129 55.4626 58.9451 51.4459 55.9376 49.3963C52.0489 46.5971 45.9325 47.2556 38.5924 51.9584C34.9749 54.3016 31.4521 57.3414 28.2377 60.5526L29.2398 61.0155C32.1503 58.2663 35.293 55.6965 38.5095 53.6802C45.8083 49.1531 51.8854 48.6424 55.7375 51.5365L55.7322 51.5341Z" fill="#99B0BE"/>
<path d="M56.4355 46.9143C59.443 48.9169 61.1112 52.9013 61.4891 57.4763L61.8245 54.8611C61.4251 50.3015 59.7402 46.3923 56.7365 44.46C52.7522 41.75 46.4618 42.7069 38.8983 47.9088C34.3826 51.0598 29.9865 55.2688 26.1391 59.5833L27.1896 60.0686C30.7386 56.2979 34.7043 52.6836 38.7774 49.9341C46.2654 44.9426 52.4945 44.1341 56.4399 46.9127L56.4355 46.9143Z" fill="#99B0BE"/>
<path d="M55.7001 55.9383C58.332 57.9621 59.9001 61.4891 60.4502 65.4403L60.7205 63.3975C60.1712 59.3817 58.576 55.835 55.8882 53.8538C52.0733 50.8867 46.0732 51.231 38.8691 55.5061C36.0303 57.2064 33.2455 59.3464 30.6295 61.6617L31.7188 62.165C33.9904 60.2893 36.3744 58.57 38.7996 57.1693C45.958 53.0714 51.9189 52.8749 55.6971 55.9369L55.7001 55.9383Z" fill="#99B0BE"/>
<g clip-path="url(#clip0_3918_74139)">
<path d="M45.743 77.9972L24.9139 30.259C24.6718 29.7028 24.6605 29.0731 24.8826 28.5083C25.1047 27.9434 25.542 27.4895 26.0984 27.2461L54.5229 14.844C54.7988 14.7228 55.0959 14.6571 55.3971 14.6507C55.6984 14.6443 55.9979 14.6974 56.2785 14.8068C56.5591 14.9162 56.8153 15.0798 57.0325 15.2883C57.2496 15.4968 57.4235 15.746 57.5441 16.0218L78.3732 63.76C78.616 64.3166 78.6275 64.947 78.4052 65.5125C78.1829 66.078 77.745 66.5322 77.1877 66.7754L62.3988 73.228C62.3988 73.228 60.349 72.6609 57.5176 73.8963C54.429 75.2439 53.5231 77.1007 53.5231 77.1007L48.758 79.1798C48.2009 79.4223 47.5703 79.434 47.005 79.2123C46.4396 78.9905 45.9857 78.5535 45.743 77.9972V77.9972Z" fill="#00AEEF"/>
</g>
<path d="M56.4871 42.4905C56.7642 43.001 56.9936 43.5362 57.1724 44.0888C57.4463 44.8955 57.5238 45.4162 57.5597 45.9941C57.5979 46.5669 57.5839 47.1408 57.5177 47.7085L57.5138 47.74C57.4928 47.9075 57.4772 48.03 57.4645 48.0899C57.4563 48.0859 57.447 48.0815 57.4361 48.0768C57.3921 48.0577 57.3269 48.0293 57.2273 47.9884C57.0815 47.9286 56.6334 47.6716 56.5031 47.5894C56.3151 47.472 56.1355 47.3408 55.9658 47.1969L55.8823 47.1217L55.8313 47.2202C55.8047 47.2792 55.7917 47.3438 55.7932 47.4092C55.7948 47.4746 55.8108 47.5392 55.8401 47.5981C55.8926 47.7138 55.9777 47.8375 56.1536 48.0542C56.3773 48.3207 56.6266 48.5638 56.8977 48.7794C56.932 48.8071 56.9661 48.834 56.9981 48.8589C57.1884 49.0078 57.2681 49.0795 57.2345 49.1385C57.2298 49.1463 57.2227 49.1522 57.2142 49.1554C57.1518 49.1826 57.0097 49.1715 56.8337 49.1256C56.6776 49.0851 56.2475 48.9492 55.6333 48.5706C55.1738 48.2869 54.7399 47.9612 54.3371 47.5976L54.2734 47.5407C54.2467 47.5667 54.2225 47.5954 54.2012 47.6262C54.1778 47.658 54.1633 47.6957 54.1592 47.7355C54.1555 47.85 54.1874 47.9636 54.2503 48.06C54.4108 48.334 54.7682 48.7035 55.0397 48.9643C55.4984 49.4044 56.1747 49.8296 56.6613 50.1088C56.6802 50.1194 56.7015 50.1302 56.7234 50.1414C56.7538 50.1564 56.7835 50.1728 56.8124 50.1908C56.7981 50.2306 56.7583 50.3103 56.7108 50.4074L56.6393 50.5512C56.3837 51.0747 56.0803 51.5717 55.7329 52.0355C55.4463 52.4234 54.8451 53.1708 54.3909 53.5386C53.8121 53.6215 52.8554 53.5538 52.3763 53.5001C51.7998 53.4398 51.2289 53.3243 50.6712 53.1552L50.5131 53.1084C50.4098 53.0778 50.3244 53.052 50.2871 53.036C50.2925 53.0148 50.3266 52.8916 50.3317 52.8705C50.4581 52.325 50.6066 51.5406 50.5956 50.9033C50.5891 50.5275 50.5621 50.0151 50.4701 49.7088C50.4421 49.5976 50.3806 49.4974 50.2945 49.4225C50.2549 49.3915 50.2069 49.3742 50.1576 49.3731L50.074 49.3733L50.0721 49.4585C50.0644 50.0011 50.008 50.5408 49.9035 51.0706C49.7642 51.7773 49.5708 52.1853 49.4941 52.328C49.4096 52.4858 49.3189 52.6003 49.2572 52.6272C49.2506 52.6306 49.2432 52.6321 49.2357 52.6315L49.2201 52.6271C49.1647 52.6025 49.1677 52.4936 49.1872 52.2651C49.1905 52.2247 49.1938 52.1827 49.1972 52.1393C49.223 51.7941 49.2143 51.4463 49.1712 51.1013C49.1321 50.8237 49.0993 50.6772 49.0502 50.5606C49.0271 50.499 48.9907 50.4433 48.9437 50.3977C48.8967 50.3521 48.8404 50.3177 48.779 50.2973L48.6722 50.2676L48.6706 50.3799C48.6607 50.6022 48.6347 50.8231 48.5928 51.0408C48.564 51.193 48.4477 51.6971 48.3928 51.8431C48.3548 51.944 48.3315 52.0117 48.3157 52.0569C48.3118 52.068 48.3085 52.0773 48.3055 52.0854C48.2517 52.0533 48.146 51.9777 48.0021 51.8742C47.5364 51.5345 47.102 51.1516 46.7048 50.7303C46.3052 50.3108 45.976 49.8999 45.5716 49.1507C45.2876 48.6435 45.0512 48.1108 44.8656 47.5599C44.6514 46.9103 44.5461 46.2553 44.5685 45.7146C44.5999 44.9503 44.8187 44.4102 45.237 44.063C45.3842 43.9404 45.5472 43.8389 45.7218 43.7611C46.1021 43.5952 46.4619 43.5917 46.7917 43.7506C46.8849 43.7982 46.9661 43.8677 47.0287 43.9531C47.0912 44.0386 47.1332 44.1376 47.1511 44.2419C47.1834 44.4315 47.1154 44.5932 46.9933 44.7357C46.9713 44.7607 46.9471 44.7836 46.9211 44.8041C46.9465 44.8312 46.9752 44.8549 47.0065 44.8745C47.27 45.0617 47.626 45.0652 48.0346 44.887C48.1334 44.8436 48.229 44.7932 48.3207 44.7363C48.8662 44.3989 48.9628 43.9061 48.7405 43.135C48.6536 42.8341 48.5847 42.5791 48.2778 42.3607C48.0624 42.2075 47.653 42.2401 47.3932 42.3547C47.1609 42.4574 47.0648 42.5735 47.0255 42.6861C47.0172 42.6758 46.992 42.6631 46.9829 42.654C46.9088 42.5856 46.8581 42.4949 46.8383 42.3957C46.8108 42.2439 46.8305 42.0882 46.8947 41.9505C46.989 41.7474 47.1329 41.5732 47.3127 41.4443C47.4245 41.36 47.5449 41.2881 47.672 41.23C47.7015 41.2172 47.8 41.1736 47.8457 41.158C47.8655 41.151 47.8647 41.1411 47.8711 41.1172C47.9099 40.9741 48.0185 40.8576 48.2649 40.7568C48.4545 40.6792 48.7089 40.58 48.9342 40.5593C49.0822 40.5437 49.2322 40.5512 49.379 40.5814C49.5579 40.6228 49.7215 40.7181 49.8484 40.8549C50.0558 41.098 50.2284 41.3697 50.3609 41.6614C50.668 42.3289 50.9393 42.6974 51.2285 42.8614C51.6951 43.1257 51.983 43.0977 52.2965 42.9846L52.3297 42.9706C52.9052 42.7194 53.0329 42.4401 53.0642 42.2558C53.0737 42.2073 53.0808 42.1582 53.0854 42.1088C53.0416 42.1192 52.997 42.1261 52.9521 42.1294C52.8679 42.133 52.7838 42.1155 52.7069 42.0784C52.63 42.0413 52.5627 41.9858 52.511 41.9166C52.4444 41.8322 52.3983 41.7329 52.3769 41.6274C52.3554 41.5219 52.3591 41.4132 52.3877 41.3106C52.5179 40.865 52.9008 40.6342 53.1172 40.5363L53.1417 40.5255C53.309 40.4518 53.487 40.4052 53.6695 40.3874C53.8962 40.362 54.1265 40.3794 54.3489 40.4388C54.755 40.5548 55.0899 40.8088 55.3361 41.0168C55.74 41.3581 56.1706 41.9091 56.4871 42.4905Z" fill="white"/>
<path d="M92.3999 23.3272V86.2588C92.3999 87.9224 91.0519 89.2729 89.3914 89.2729H59.7819L59.7819 20.3105L89.3888 20.3105C91.0493 20.3105 92.3973 21.6611 92.3973 23.3247L92.3999 23.3272Z" fill="#FFCB05"/>
<path d="M92.5737 66.8057H94.3762C95.2723 66.8057 95.9998 66.063 95.9998 65.1482V44.4626C95.9998 43.5478 95.2723 42.8051 94.3762 42.8051H92.5737C92.4777 42.8051 92.3999 42.8845 92.3999 42.9825V66.6283C92.3999 66.7262 92.4777 66.8057 92.5737 66.8057Z" fill="#F3BF26"/>
<defs>
<clipPath id="clip0_3918_74139">
<rect width="35.5953" height="56.6618" fill="white" transform="translate(23.999 28.1621) rotate(-23.5725)"/>
</clipPath>
</defs>
</svg>
