<svg xmlns="http://www.w3.org/2000/svg" xmlns:xlink="http://www.w3.org/1999/xlink" width="374" zoomAndPan="magnify" viewBox="0 0 280.5 76.499998" height="102" preserveAspectRatio="xMidYMid meet" version="1.0"><defs><g/><clipPath id="68bace4b60"><path d="M 0.664062 19.09375 L 42.390625 19.09375 L 42.390625 54 L 0.664062 54 Z M 0.664062 19.09375 " clip-rule="nonzero"/></clipPath></defs><g clip-path="url(#68bace4b60)"><path fill="#ffffff" d="M 33.492188 19.863281 L 42.21875 19.863281 C 37.886719 25.59375 33.628906 31.214844 29.375 36.84375 C 33.671875 42.523438 37.957031 48.179688 42.3125 53.929688 L 33.597656 53.929688 C 33.539062 53.875 33.484375 53.8125 33.429688 53.738281 C 31.707031 51.425781 29.964844 49.132812 28.222656 46.835938 C 23.449219 40.535156 18.671875 34.246094 13.902344 27.953125 C 12.902344 26.632812 11.457031 26.136719 9.976562 26.625 C 8.527344 27.105469 7.601562 28.433594 7.601562 30.023438 L 7.601562 42.5625 L 7.578125 42.554688 L 7.578125 53.929688 L 0.671875 53.929688 C 0.671875 51.425781 0.671875 48.921875 0.671875 46.421875 L 0.671875 29.855469 C 0.671875 28.449219 0.910156 27.089844 1.488281 25.816406 C 3.097656 22.269531 5.835938 20.101562 9.707031 19.605469 C 13.683594 19.097656 16.964844 20.539062 19.429688 23.714844 C 21.128906 25.902344 22.777344 28.125 24.449219 30.335938 C 24.625 30.5625 24.800781 30.789062 24.988281 31.042969 C 25.085938 30.933594 25.148438 30.863281 25.207031 30.789062 C 27.964844 27.15625 30.722656 23.523438 33.472656 19.882812 C 33.476562 19.875 33.484375 19.871094 33.492188 19.863281 Z M 33.492188 19.863281 " fill-opacity="1" fill-rule="nonzero"/></g><g fill="#ffffff" fill-opacity="1"><g transform="translate(49.77232, 54.896941)"><g><path d="M 10.265625 0 L 4.15625 0 L 4.15625 -31.921875 L 11.375 -31.921875 L 24.1875 -11.359375 L 24.765625 -11.4375 L 24.765625 -31.921875 L 30.828125 -31.921875 L 30.828125 0 L 24.375 0 L 10.8125 -21.96875 L 10.265625 -21.875 Z M 10.265625 0 "/></g></g></g><g fill="#ffffff" fill-opacity="1"><g transform="translate(84.76577, 54.896941)"><g><path d="M 10.453125 -14.015625 L 10.453125 -5.28125 L 25.703125 -5.28125 L 25.703125 0 L 4.15625 0 L 4.15625 -31.921875 L 25.34375 -31.921875 L 25.34375 -26.640625 L 10.453125 -26.640625 L 10.453125 -19.171875 L 23.46875 -19.171875 L 23.46875 -14.015625 Z M 10.453125 -14.015625 "/></g></g></g><g fill="#ffffff" fill-opacity="1"><g transform="translate(112.206049, 54.896941)"><g><path d="M 7.015625 0 L 0.546875 0 L 10 -16.421875 L 1 -31.921875 L 7.703125 -31.921875 L 14.328125 -20.484375 L 14.875 -20.484375 L 21.59375 -31.921875 L 27.96875 -31.921875 L 18.96875 -16.421875 L 28.421875 0 L 21.75 0 L 14.65625 -12.3125 L 14.109375 -12.3125 Z M 7.015625 0 "/></g></g></g><g fill="#ffffff" fill-opacity="1"><g transform="translate(141.174426, 54.896941)"><g><path d="M 16.921875 0.453125 C 12.523438 0.453125 9.265625 -0.585938 7.140625 -2.671875 C 5.015625 -4.765625 3.953125 -7.863281 3.953125 -11.96875 L 3.953125 -31.921875 L 10.125 -31.921875 L 10.125 -12.015625 C 10.125 -9.679688 10.6875 -7.929688 11.8125 -6.765625 C 12.9375 -5.597656 14.640625 -5.015625 16.921875 -5.015625 C 21.453125 -5.015625 23.71875 -7.347656 23.71875 -12.015625 L 23.71875 -31.921875 L 29.890625 -31.921875 L 29.890625 -11.96875 C 29.890625 -7.863281 28.828125 -4.765625 26.703125 -2.671875 C 24.578125 -0.585938 21.316406 0.453125 16.921875 0.453125 Z M 16.921875 0.453125 "/></g></g></g><g fill="#ffffff" fill-opacity="1"><g transform="translate(175.010887, 54.896941)"><g><path d="M 14.15625 0.453125 C 11.9375 0.453125 9.960938 0.179688 8.234375 -0.359375 C 6.515625 -0.898438 5.078125 -1.613281 3.921875 -2.5 C 2.773438 -3.394531 1.894531 -4.375 1.28125 -5.4375 L 4.765625 -9.671875 L 5.3125 -9.671875 C 6.269531 -8.242188 7.488281 -7.109375 8.96875 -6.265625 C 10.445312 -5.421875 12.175781 -5 14.15625 -5 C 15.84375 -5 17.113281 -5.351562 17.96875 -6.0625 C 18.832031 -6.78125 19.265625 -7.765625 19.265625 -9.015625 C 19.265625 -9.773438 19.125 -10.410156 18.84375 -10.921875 C 18.5625 -11.429688 18.097656 -11.867188 17.453125 -12.234375 C 16.816406 -12.597656 15.957031 -12.910156 14.875 -13.171875 L 10.765625 -14.109375 C 7.898438 -14.765625 5.765625 -15.851562 4.359375 -17.375 C 2.953125 -18.894531 2.25 -20.867188 2.25 -23.296875 C 2.25 -25.097656 2.695312 -26.679688 3.59375 -28.046875 C 4.5 -29.421875 5.8125 -30.484375 7.53125 -31.234375 C 9.257812 -31.992188 11.328125 -32.375 13.734375 -32.375 C 16.191406 -32.375 18.296875 -32.050781 20.046875 -31.40625 C 21.804688 -30.757812 23.289062 -29.765625 24.5 -28.421875 L 21.375 -24.15625 L 20.828125 -24.15625 C 19.929688 -25.09375 18.898438 -25.796875 17.734375 -26.265625 C 16.566406 -26.742188 15.234375 -26.984375 13.734375 -26.984375 C 12.003906 -26.984375 10.6875 -26.675781 9.78125 -26.0625 C 8.875 -25.457031 8.421875 -24.613281 8.421875 -23.53125 C 8.421875 -22.53125 8.738281 -21.726562 9.375 -21.125 C 10.007812 -20.53125 11.109375 -20.066406 12.671875 -19.734375 L 16.859375 -18.859375 C 19.953125 -18.210938 22.195312 -17.101562 23.59375 -15.53125 C 25 -13.96875 25.703125 -11.925781 25.703125 -9.40625 C 25.703125 -7.414062 25.269531 -5.679688 24.40625 -4.203125 C 23.550781 -2.722656 22.253906 -1.578125 20.515625 -0.765625 C 18.785156 0.046875 16.664062 0.453125 14.15625 0.453125 Z M 14.15625 0.453125 "/></g></g></g></svg>